<?xml version="1.0" encoding="utf-8"?>
<!-- Generator: Adobe Illustrator 22.1.0, SVG Export Plug-In . SVG Version: 6.00 Build 0)  -->
<svg version="1.1" id="Layer_1" xmlns="http://www.w3.org/2000/svg" xmlns:xlink="http://www.w3.org/1999/xlink" x="0px" y="0px"
	 viewBox="0 0 64 46" style="enable-background:new 0 0 64 46;" xml:space="preserve">
<style type="text/css">
	.st0{fill:none;stroke:#F88379;stroke-width:2.25;}
</style>
<title>icon-bikefit</title>
<desc>Created with Sketch.</desc>
<circle class="st0" cx="47" cy="34" r="8"/>
<circle class="st0" cx="17" cy="34" r="8"/>
<path class="st0" d="M46,16h-5.3L39,13.8c0-1-0.4-1.9-1.2-2.6c-1.6-1.6-4.1-1.6-5.7,0l-7,7c-1.5,1.5-1.5,3.9-0.2,5.4l0.3,0.3
	c0.4,0.4,0.8,0.7,1.3,0.8l4,2.5l-2.4,7.1c-0.4,1,0.2,2.2,1.2,2.5h0c1,0.4,2.2-0.2,2.5-1.2l3.4-10.1l-3.8-2.4l5.4-5.4l1.7,2.3H46
	c1.1,0,2-0.9,2-2S47.1,16,46,16z"/>
<circle class="st0" cx="44" cy="6" r="4"/>
<line class="st0" x1="56" y1="44" x2="12" y2="44"/>
<line class="st0" x1="8" y1="44" x2="10" y2="44"/>
</svg>
