<?xml version="1.0" encoding="UTF-8"?>
<svg width="45px" height="30px" viewBox="0 0 45 30" version="1.1" xmlns="http://www.w3.org/2000/svg" xmlns:xlink="http://www.w3.org/1999/xlink">
    <!-- Generator: Sketch 51.3 (57544) - http://www.bohemiancoding.com/sketch -->
    <title>icon-perfdiag-small</title>
    <desc>Created with Sketch.</desc>
    <defs></defs>
    <g id="Visual-Design" stroke="none" stroke-width="1" fill="none" fill-rule="evenodd">
        <g id="02-Service-Overview-(Desktop)" transform="translate(-79.000000, -130.000000)" stroke="#005E83" stroke-width="1.5">
            <g id="Group-8-Copy" transform="translate(80.000000, 129.000000)">
                <g id="icon-perfdiag-small" transform="translate(0.000000, 2.000000)">
                    <ellipse id="Oval" cx="29.0217391" cy="8.4" rx="14.0217391" ry="8.4"></ellipse>
                    <ellipse id="Oval" cx="29.5434783" cy="8.8" rx="6.54347826" ry="2.8"></ellipse>
                    <path d="M27.1086493,16.4 L0,16.4 L0,27.6 L27.4249421,27.6 C31.8966787,27.6 43,26.6666667 43,19.5157562 L43,16.4 L43,8" id="Shape"></path>
                    <path d="M15,8 L15,16.4" id="Shape"></path>
                    <path d="M4,25 L4,27.8" id="Shape"></path>
                    <path d="M8,23 L8,27.6666667" id="Shape"></path>
                    <path d="M12,25 L12,27.8" id="Shape"></path>
                    <path d="M15,23 L15,27.6666667" id="Shape"></path>
                    <path d="M19,25 L19,27.8" id="Shape"></path>
                    <path d="M23,23 L23,27.6666667" id="Shape"></path>
                    <path d="M26,25 L26,27.8" id="Shape"></path>
                    <path d="M30,23 L30,27.6666667" id="Shape"></path>
                    <path d="M34,25 L34,27.8" id="Shape"></path>
                    <path d="M38,23 L38,26.7333333" id="Shape"></path>
                </g>
            </g>
        </g>
    </g>
</svg>