<?xml version="1.0" encoding="utf-8"?>
<!-- Generator: Adobe Illustrator 22.1.0, SVG Export Plug-In . SVG Version: 6.00 Build 0)  -->
<svg version="1.1" id="Layer_1" xmlns="http://www.w3.org/2000/svg" xmlns:xlink="http://www.w3.org/1999/xlink" x="0px" y="0px"
	 viewBox="0 0 22.8 27.4" style="enable-background:new 0 0 22.8 27.4;" xml:space="preserve">
<style type="text/css">
	.st0{fill:#005E83;}
</style>
<title>icon-trainplan-small</title>
<desc>Created with Sketch.</desc>
<g>
	<path class="st0" d="M19.6,8.1l1.8-1.8l-2.6-2.6l-2.1,2.1c-1.1-0.6-2.3-1-3.5-1.1V3.5h1.1V0H8.5v3.5h1.1v1.2C4.2,5.6,0,10.3,0,16
		c0,6.3,5.1,11.4,11.4,11.4S22.8,22.3,22.8,16C22.8,12.9,21.6,10.1,19.6,8.1z M18.8,5.5l0.8,0.8l-0.9,0.9c-0.3-0.3-0.6-0.5-1-0.7
		L18.8,5.5z M9.7,1.3h3.3v1H9.7V1.3z M10.9,3.5h1v1.1c-0.2,0-0.3,0-0.5,0s-0.3,0-0.5,0V3.5z M11.4,26.2C5.8,26.2,1.2,21.6,1.2,16
		S5.8,5.8,11.4,5.8S21.6,10.4,21.6,16S17,26.2,11.4,26.2z"/>
	<path class="st0" d="M11.4,7.4c-4.7,0-8.6,3.8-8.6,8.6c0,4.7,3.8,8.6,8.6,8.6S20,20.7,20,16C20,11.3,16.1,7.4,11.4,7.4z M11.4,23.3
		c-4,0-7.3-3.3-7.3-7.3c0-4,3.3-7.3,7.3-7.3s7.3,3.3,7.3,7.3C18.7,20,15.4,23.3,11.4,23.3z"/>
	<path class="st0" d="M12,14.4V9.7h-1.2v4.6c-0.7,0.2-1.1,0.9-1.1,1.6c0,1,0.8,1.7,1.7,1.7s1.7-0.8,1.7-1.7
		C13.1,15.2,12.7,14.6,12,14.4z M11.4,16.5c-0.3,0-0.5-0.2-0.5-0.5c0-0.3,0.2-0.5,0.5-0.5s0.5,0.2,0.5,0.5
		C11.9,16.3,11.7,16.5,11.4,16.5z"/>
</g>
</svg>
