<?xml version="1.0" encoding="UTF-8"?>
<svg width="29px" height="40px" viewBox="0 0 29 40" version="1.1" xmlns="http://www.w3.org/2000/svg" xmlns:xlink="http://www.w3.org/1999/xlink">
    <!-- Generator: Sketch 60.1 (88133) - https://sketch.com -->
    <title>icon-flat-rate</title>
    <desc>Created with Sketch.</desc>
    <defs>
        <path d="M23.6521739,4.52173913 C24.6370422,4.52173913 25.5085553,5.11187062 25.8879727,5.99144644 L25.9530157,6.15689092 L25.9540924,6.14655004 L29.3333333,6.14492754 C30.2297642,6.14492754 30.9565217,6.87168511 30.9565217,7.76811594 L35.0144928,7.76811594 C36.3591233,7.76811594 37.4492754,8.85826798 37.4492754,10.2028986 L37.4492754,10.2028986 L37.4492754,41.0434783 C37.4492754,42.3882538 36.3591764,43.4782609 35.0144928,43.4782609 L35.0144928,43.4782609 L12.2898551,43.4782609 C10.9450989,43.4782609 9.85507246,42.3882804 9.85507246,41.0434783 L9.85507246,41.0434783 L9.85507246,10.2028986 C9.85507246,8.85824142 10.945152,7.76811594 12.2898551,7.76811594 L12.2898551,7.76811594 L16.3478261,7.76811594 C16.3478261,6.87168511 17.0745837,6.14492754 17.9710145,6.14492754 L21.3502675,6.14662086 L21.4157248,5.99277738 C21.7949731,5.11234716 22.6668215,4.52173913 23.6521739,4.52173913 Z M16.3470725,9.39073913 L12.2898551,9.39130435 C11.8416295,9.39130435 11.4782609,9.7546883 11.4782609,10.2028986 L11.4782609,10.2028986 L11.4782609,41.0434783 C11.4782609,41.4918029 11.8415458,41.8550725 12.2898551,41.8550725 L12.2898551,41.8550725 L35.0144928,41.8550725 C35.4627449,41.8550725 35.826087,41.491761 35.826087,41.0434783 L35.826087,41.0434783 L35.826087,10.2028986 C35.826087,9.75473019 35.4626611,9.39130435 35.0144928,9.39130435 L35.0144928,9.39130435 L30.9560725,9.39073913 L30.9565217,11.0144928 L16.3478261,11.0144928 L16.3470725,9.39073913 Z M20.8271623,30.2328058 L21.8395044,31.1005276 L16.8154619,36.9619105 L12.8784545,33.2873702 L13.7882122,32.3126298 L16.7083476,35.0380895 L20.8271623,30.2328058 Z M32.6666667,33.1884058 L32.6666667,34.8115942 L24.6666667,34.8115942 L24.6666667,33.1884058 L32.6666667,33.1884058 Z M20.8271623,22.2328058 L21.8395044,23.1005276 L16.8154619,28.9619105 L12.8784545,25.2873702 L13.7882122,24.3126298 L16.7083476,27.0380895 L20.8271623,22.2328058 Z M32.6666667,25.1884058 L32.6666667,26.8115942 L24.6666667,26.8115942 L24.6666667,25.1884058 L32.6666667,25.1884058 Z M20.8271623,14.2328058 L21.8395044,15.1005276 L16.8154619,20.9619105 L12.8784545,17.2873702 L13.7882122,16.3126298 L16.7083476,19.0380895 L20.8271623,14.2328058 Z M32.6666667,17.1884058 L32.6666667,18.8115942 L24.6666667,18.8115942 L24.6666667,17.1884058 L32.6666667,17.1884058 Z M23.6521739,6.14492754 C23.3440383,6.14492754 23.0689936,6.31831068 22.9318023,6.58172889 L22.8183698,6.85931405 C22.5554349,7.42412685 21.9653887,7.76811594 21.3379614,7.76811594 L17.9710145,7.76811594 L17.9710145,9.39130435 L29.3333333,9.39130435 L29.3333333,7.76811594 L25.9663864,7.76811594 C25.3390219,7.76811594 24.7490328,7.42419091 24.4859127,6.85927704 L24.3724322,6.58168471 C24.23526,6.31831586 23.9602292,6.14492754 23.6521739,6.14492754 Z" id="path-1"></path>
    </defs>
    <g id="Visual-Design" stroke="none" stroke-width="1" fill="none" fill-rule="evenodd">
        <g id="04-Audience-Detail-(Desktop)" transform="translate(-829.000000, -584.000000)">
            <g id="Group-3-Copy-2" transform="translate(800.000000, 560.000000)">
                <g id="Icon-/-Flat-rate" transform="translate(20.000000, 20.000000)">
                    <mask id="mask-2" fill="white">
                        <use xlink:href="#path-1"></use>
                    </mask>
                    <use id="Combined-Shape" fill="#F88379" fill-rule="nonzero" xlink:href="#path-1"></use>
                    <g id="Colour-/-Theme-Red" mask="url(#mask-2)" fill="#F88379" fill-rule="evenodd">
                        <rect id="Rectangle" x="0" y="0" width="48" height="48"></rect>
                    </g>
                </g>
            </g>
        </g>
    </g>
</svg>