<?xml version="1.0" encoding="UTF-8"?>
<svg width="46px" height="51px" viewBox="0 0 46 51" version="1.1" xmlns="http://www.w3.org/2000/svg" xmlns:xlink="http://www.w3.org/1999/xlink">
    <!-- Generator: Sketch 51.3 (57544) - http://www.bohemiancoding.com/sketch -->
    <title>icon-nutrcoach</title>
    <desc>Created with Sketch.</desc>
    <defs></defs>
    <g id="Visual-Design" stroke="none" stroke-width="1" fill="none" fill-rule="evenodd">
        <g id="02-Service-Overview-(Desktop)" transform="translate(-646.000000, -2012.000000)" stroke="#F88379" stroke-width="2.25">
            <g id="Group-4-Copy-2" transform="translate(520.000000, 2013.000000)">
                <g id="icon-nutrcoach" transform="translate(128.000000, 0.000000)">
                    <path d="M30.3578305,8.00489547 C27.7061705,7.91424229 25.1657654,9.08688732 22.9875795,11.1666424 C21.8614442,12.2418883 20.1390445,12.2418883 19.0129093,11.1666424 C16.8347234,9.08688732 14.2943182,7.91424229 11.64253,8.00489547 C4.55772316,8.24710843 -0.627292993,17.3956273 0.0613849581,28.4386127 C0.750191114,39.4815981 7.05198563,48.2372446 14.1366649,47.9950959 C15.1823069,47.95931 16.1861643,47.7285331 17.1355478,47.3260227 C19.5853341,46.2873979 22.4148993,46.2873979 24.8646856,47.3259584 C25.8143254,47.728469 26.8179264,47.9593101 27.8635685,47.995096 C34.9482483,48.2372447 41.2500423,39.4815982 41.9385921,28.4386128 C42.6273977,17.3956273 37.4425103,8.24710843 30.3578305,8.00489547 Z" id="Shape"></path>
                    <path d="M21.08,12 C21.08,12 20.1,4.07664158 25,0" id="Shape"></path>
                    <path d="M12,1 C12,5.9705582 16.0293732,10 21,10 C21,5.0294418 16.9704895,1 12,1 Z" id="Shape"></path>
                </g>
            </g>
        </g>
    </g>
</svg>