<?xml version="1.0" encoding="UTF-8"?>
<svg width="42px" height="30px" viewBox="0 0 42 30" version="1.1" xmlns="http://www.w3.org/2000/svg" xmlns:xlink="http://www.w3.org/1999/xlink">
    <!-- Generator: Sketch 60.1 (88133) - https://sketch.com -->
    <title>icon-bikefit</title>
    <desc>Created with Sketch.</desc>
    <defs>
        <path d="M36.3333333,20.6666667 C40.9422031,20.6666667 44.6666667,24.5530634 44.6666667,29.3333333 C44.6666667,34.1136032 40.9422031,38 36.3333333,38 C31.7244636,38 28,34.1136032 28,29.3333333 C28,25.1097531 30.9075045,21.5839754 34.7636142,20.8200615 L34.4113333,17.9996667 L15.1763849,18 L14.478954,21.1723012 C17.7003422,22.3727926 20,25.5771035 20,29.3333333 C20,34.1136032 16.2755364,38 11.6666667,38 C7.05779691,38 3.33333333,34.1136032 3.33333333,29.3333333 C3.33333333,24.5530634 7.05779691,20.6666667 11.6666667,20.6666667 C12.1881133,20.6666667 12.6982389,20.7164149 13.1929305,20.8115775 L14.1045398,16.6666667 L34.2443333,16.6656667 L33.4113333,9.99966667 L30.6666667,10 L30.6666667,8.66666667 L37.4545487,8.66666667 C39.2356691,8.66666667 40.6666667,10.1658086 40.6666667,12 C40.6666667,13.8341914 39.2356691,15.3333333 37.4545487,15.3333333 L37.4545487,15.3333333 L37.4545487,14 C38.4850576,14 39.3333333,13.1113292 39.3333333,12 C39.3333333,10.8886708 38.4850576,10 37.4545487,10 L37.4545487,10 L34.7553333,9.99966667 L36.0888252,20.6703214 C36.1700389,20.6678905 36.2515468,20.6666667 36.3333333,20.6666667 Z M11.6666667,22 C7.80717026,22 4.66666667,25.2770472 4.66666667,29.3333333 C4.66666667,33.3896194 7.80717026,36.6666667 11.6666667,36.6666667 C15.5261631,36.6666667 18.6666667,33.3896194 18.6666667,29.3333333 C18.6666667,26.2108368 16.805668,23.5501015 14.1882746,22.4905352 L12.651091,29.4765984 L11.348909,29.1900682 L12.9062313,22.1147411 C12.5037984,22.0393423 12.0895484,22 11.6666667,22 Z M36.3333333,22 L36.2543333,22.0006667 L37.3281853,30.5839768 L36.0051481,30.7493565 L34.9292259,22.1477127 C31.7401818,22.8284906 29.3333333,25.7823118 29.3333333,29.3333333 C29.3333333,33.3896194 32.4738369,36.6666667 36.3333333,36.6666667 C40.1928297,36.6666667 43.3333333,33.3896194 43.3333333,29.3333333 C43.3333333,25.2770472 40.1928297,22 36.3333333,22 Z M16.6666667,12.6666667 L16.6666667,14 L10.6666667,14 L10.6666667,12.6666667 L16.6666667,12.6666667 Z" id="path-1"></path>
    </defs>
    <g id="Visual-Design" stroke="none" stroke-width="1" fill="none" fill-rule="evenodd">
        <g id="04-Audience-Detail-(Desktop)" transform="translate(-463.000000, -588.000000)">
            <g id="Group-3-Copy" transform="translate(440.000000, 560.000000)">
                <g id="Icon-/-Bikefit" transform="translate(20.000000, 20.000000)">
                    <mask id="mask-2" fill="white">
                        <use xlink:href="#path-1"></use>
                    </mask>
                    <use id="Combined-Shape" fill="#0F4C64" fill-rule="nonzero" xlink:href="#path-1"></use>
                    <g id="Colour-/-Theme-Red" mask="url(#mask-2)" fill="#F88379" fill-rule="evenodd">
                        <rect id="Rectangle" x="0" y="0" width="48" height="48"></rect>
                    </g>
                </g>
            </g>
        </g>
    </g>
</svg>