<?xml version="1.0" encoding="utf-8"?>
<!-- Generator: Adobe Illustrator 22.1.0, SVG Export Plug-In . SVG Version: 6.00 Build 0)  -->
<svg version="1.1" id="Layer_1" xmlns="http://www.w3.org/2000/svg" xmlns:xlink="http://www.w3.org/1999/xlink" x="0px" y="0px"
	 viewBox="0 0 43 42" style="enable-background:new 0 0 43 42;" xml:space="preserve">
<style type="text/css">
	.st0{fill:#F88379;}
</style>
<title>icon-trainplan</title>
<desc>Created with Sketch.</desc>
<g transform="translate(0,-952.36218)">
	<path class="st0" d="M14.2,952.4C6.3,952.4,0,958.7,0,967c0,7.8,6.3,14.7,14.2,14.7c4.1,0,7.8-1.7,10.4-4.3l16.7,16.7
		c0.4,0.4,1,0.4,1.4,0s0.4-1,0-1.4c0,0,0,0,0,0l-16.9-16.9c1.9-2.5,3-5.6,3-8.8C28.8,958.7,22.5,952.4,14.2,952.4z M14.2,954.3
		c7.3,0,12.7,5.4,12.7,12.7c0,6.8-5.4,12.7-12.7,12.7C7.4,979.7,2,973.8,2,967C2,959.7,7.4,954.3,14.2,954.3z"/>
	<path class="st0" d="M14.6,961.6c0,0-0.1,0-0.1,0c-0.1,0-0.2,0-0.3,0.1c0,0-0.1,0-0.1,0c0,0,0,0,0,0c-0.2,0.1-0.3,0.3-0.4,0.5
		c0,0,0,0.1,0,0.1l-2.4,6.2l-1.6-4.8c-0.2-0.5-0.7-0.8-1.2-0.6c-0.2,0.1-0.5,0.3-0.6,0.5L6.2,967H4.9c0,0-0.1,0-0.1,0
		c-0.5,0-1,0.5-0.9,1c0,0.5,0.5,1,1,0.9c0,0,0,0,0,0h1.6c0.4,0.1,0.8,0,1.1-0.3c0,0,0,0,0.1-0.1c0,0,0,0,0,0c0,0,0.1-0.1,0.1-0.2
		c0,0,0,0,0,0c0,0,0,0,0,0l0-0.1c0,0,0-0.1,0-0.1l0.8-1.6l1.7,5.1c0.2,0.5,0.7,0.8,1.2,0.6c0.3-0.1,0.5-0.3,0.6-0.6l2.4-6.3l2.1,6.2
		c0.2,0.5,0.7,0.8,1.2,0.6c0.3-0.1,0.5-0.3,0.6-0.6l2-5l0.5,1.3c0,0.5,0.5,0.9,1,0.9c0,0,0,0,0,0c0,0,0,0,0,0h2c0.5,0,1-0.4,1-1
		c0-0.5-0.4-1-1-1c0,0,0,0,0,0h-1.3l-1.2-3.3c-0.2-0.5-0.8-0.8-1.3-0.6c-0.3,0.1-0.5,0.3-0.6,0.5l-1.9,4.9l-2.1-6.2v0
		c0-0.1,0-0.1-0.1-0.2c0-0.1-0.1-0.2-0.2-0.3c0,0-0.1-0.1-0.1-0.1c0,0,0,0,0,0c0,0,0,0,0,0c0,0,0,0,0,0c0,0-0.1-0.1-0.1-0.1
		c0,0-0.1,0-0.1,0c-0.1,0-0.1,0-0.2,0C14.7,961.6,14.7,961.6,14.6,961.6C14.7,961.6,14.7,961.6,14.6,961.6L14.6,961.6z"/>
</g>
</svg>
