<?xml version="1.0" encoding="utf-8"?>
<!-- Generator: Adobe Illustrator 22.1.0, SVG Export Plug-In . SVG Version: 6.00 Build 0)  -->
<svg version="1.1" id="Layer_1" xmlns="http://www.w3.org/2000/svg" xmlns:xlink="http://www.w3.org/1999/xlink" x="0px" y="0px"
	 viewBox="0 0 28 27.4" style="enable-background:new 0 0 28 27.4;" xml:space="preserve">
<style type="text/css">
	.st0{fill:#005E83;}
</style>
<title>icon-trainplan-small</title>
<desc>Created with Sketch.</desc>
<g transform="translate(0,-952.36218)">
	<path class="st0" d="M9.2,952.4c-5.1,0-9.2,4.1-9.2,9.5c0,5.1,4.1,9.5,9.2,9.5c2.7,0,5.1-1.1,6.8-2.8l10.9,10.9
		c0.2,0.3,0.6,0.3,0.9,0c0.3-0.2,0.3-0.6,0-0.9c0,0,0,0,0,0l-11-11c1.2-1.6,1.9-3.6,1.9-5.7C18.8,956.5,14.6,952.4,9.2,952.4z
		 M9.2,953.6c4.8,0,8.3,3.5,8.3,8.3c0,4.4-3.5,8.3-8.3,8.3c-4.4,0-8-3.8-8-8.3C1.3,957.1,4.8,953.6,9.2,953.6z"/>
	<path class="st0" d="M9.5,958.4C9.5,958.4,9.5,958.4,9.5,958.4c-0.1,0-0.2,0-0.2,0.1c0,0,0,0,0,0c0,0,0,0,0,0
		c-0.1,0.1-0.2,0.2-0.3,0.3c0,0,0,0.1,0,0.1l-1.6,4l-1-3.1c-0.1-0.3-0.5-0.5-0.8-0.4c-0.2,0.1-0.3,0.2-0.4,0.3l-1.1,2.2H3.2
		c0,0,0,0-0.1,0c-0.4,0-0.6,0.3-0.6,0.7c0,0.4,0.3,0.6,0.7,0.6c0,0,0,0,0,0h1c0.3,0.1,0.5,0,0.7-0.2c0,0,0,0,0,0c0,0,0,0,0,0
		c0,0,0-0.1,0.1-0.1c0,0,0,0,0,0c0,0,0,0,0,0l0,0c0,0,0,0,0-0.1l0.5-1.1l1.1,3.3c0.1,0.3,0.5,0.5,0.8,0.4c0.2-0.1,0.3-0.2,0.4-0.4
		l1.6-4.1l1.4,4.1c0.1,0.3,0.5,0.5,0.8,0.4c0.2-0.1,0.3-0.2,0.4-0.4l1.3-3.2l0.3,0.8c0,0.3,0.3,0.6,0.6,0.6c0,0,0,0,0,0c0,0,0,0,0,0
		h1.3c0.4,0,0.6-0.3,0.6-0.6c0-0.4-0.3-0.6-0.6-0.6c0,0,0,0,0,0h-0.8l-0.8-2.1c-0.1-0.3-0.5-0.5-0.8-0.4c-0.2,0.1-0.3,0.2-0.4,0.4
		l-1.3,3.2l-1.3-4v0c0,0,0-0.1,0-0.1c0-0.1-0.1-0.1-0.1-0.2c0,0-0.1,0-0.1-0.1c0,0,0,0,0,0c0,0,0,0,0,0c0,0,0,0,0,0c0,0-0.1,0-0.1,0
		c0,0,0,0-0.1,0C9.7,958.4,9.6,958.4,9.5,958.4C9.6,958.4,9.6,958.4,9.5,958.4C9.6,958.4,9.5,958.4,9.5,958.4L9.5,958.4z"/>
</g>
</svg>
