<?xml version="1.0" encoding="UTF-8"?>
<svg width="69px" height="46px" viewBox="0 0 69 46" version="1.1" xmlns="http://www.w3.org/2000/svg" xmlns:xlink="http://www.w3.org/1999/xlink">
    <!-- Generator: Sketch 51.3 (57544) - http://www.bohemiancoding.com/sketch -->
    <title>Group 7</title>
    <desc>Created with Sketch.</desc>
    <defs></defs>
    <g id="Visual-Design" stroke="none" stroke-width="1" fill="none" fill-rule="evenodd">
        <g id="02-Service-Overview-(Desktop)" transform="translate(-82.000000, -287.000000)" stroke="#F88379" stroke-width="2.25">
            <g id="Group-7" transform="translate(84.000000, 289.000000)">
                <ellipse id="Oval" cx="43.8043478" cy="12.6" rx="21.1956522" ry="12.6"></ellipse>
                <ellipse id="Oval" cx="43.8043478" cy="12.6" rx="9.89130435" ry="4.2"></ellipse>
                <path d="M40.9781908,25.2 L0,25.2 L0,42 L41.4563079,42 C48.2159097,42 65,40.6 65,29.8736343 L65,25.2 L65,12.6" id="Shape"></path>
                <path d="M22.6086957,12.6 L22.6086957,25.2" id="Shape"></path>
                <path d="M5.65217391,37.8 L5.65217391,42" id="Shape"></path>
                <path d="M11.3043478,35 L11.3043478,42" id="Shape"></path>
                <path d="M16.9565217,37.8 L16.9565217,42" id="Shape"></path>
                <path d="M22.6086957,35 L22.6086957,42" id="Shape"></path>
                <path d="M28.2608696,37.8 L28.2608696,42" id="Shape"></path>
                <path d="M33.9130435,35 L33.9130435,42" id="Shape"></path>
                <path d="M39.5652174,37.8 L39.5652174,42" id="Shape"></path>
                <path d="M45.2173913,35 L45.2173913,42" id="Shape"></path>
                <path d="M50.8695652,37.8 L50.8695652,42" id="Shape"></path>
                <path d="M56.5217391,35 L56.5217391,40.6" id="Shape"></path>
            </g>
        </g>
    </g>
</svg>