<?xml version="1.0" encoding="utf-8"?>
<!-- Generator: Adobe Illustrator 23.0.2, SVG Export Plug-In . SVG Version: 6.00 Build 0)  -->
<svg version="1.1" id="Layer_1" xmlns="http://www.w3.org/2000/svg" xmlns:xlink="http://www.w3.org/1999/xlink" x="0px" y="0px"
	 viewBox="0 0 48 48" style="enable-background:new 0 0 48 48;" xml:space="preserve">
<style type="text/css">
	.st0{fill:#F88379;}
</style>
<g>
	<g>
		<path class="st0" d="M48,11.7l-3.8,22c-0.1,0.7-0.7,1.2-1.4,1.2h-30c-0.7,0-1.3-0.5-1.4-1.2L6.5,5.4h-5C0.7,5.4,0,4.8,0,3.9
			c0-0.8,0.7-1.5,1.5-1.5h6.3c0.7,0,1.3,0.5,1.4,1.2L14,32h27.6l0.7-4.1H21.9c-0.8,0-1.5-0.7-1.5-1.5s0.7-1.5,1.5-1.5h20.9l0.8-4.6
			H19.1c-0.8,0-1.5-0.7-1.5-1.5s0.7-1.5,1.5-1.5H44l0.8-4.6H16.3c-0.8,0-1.5-0.7-1.5-1.5s0.7-1.5,1.5-1.5h30.2
			c0.4,0,0.8,0.2,1.1,0.5C47.9,10.8,48,11.3,48,11.7z"/>
	</g>
	<g>
		<circle class="st0" cx="38.7" cy="41.1" r="4.4"/>
	</g>
	<g>
		<circle class="st0" cx="16.2" cy="41.1" r="4.4"/>
	</g>
</g>
</svg>
