<?xml version="1.0" encoding="utf-8"?>
<!-- Generator: Adobe Illustrator 22.1.0, SVG Export Plug-In . SVG Version: 6.00 Build 0)  -->
<svg version="1.1" id="Layer_1" xmlns="http://www.w3.org/2000/svg" xmlns:xlink="http://www.w3.org/1999/xlink" x="0px" y="0px"
	 viewBox="0 0 43 30" style="enable-background:new 0 0 43 30;" xml:space="preserve">
<style type="text/css">
	.st0{fill:none;stroke:#005E83;stroke-width:1.5349;}
</style>
<circle class="st0" cx="31.5" cy="22.4" r="5.3"/>
<circle class="st0" cx="11.5" cy="22.4" r="5.3"/>
<path class="st0" d="M30.9,10.3h-3.6l-1.1-1.5c0-0.6-0.3-1.3-0.8-1.8c-1-1-2.7-1-3.8,0l-4.7,4.7c-1,1-1,2.6-0.1,3.6l0.2,0.2
	c0.3,0.2,0.6,0.4,0.9,0.6l2.7,1.7l-1.6,4.7c-0.2,0.7,0.1,1.5,0.8,1.7h0c0.7,0.2,1.5-0.1,1.7-0.8l2.3-6.7l-2.6-1.6l3.6-3.6L26,13h4.9
	c0.7,0,1.3-0.6,1.3-1.3S31.6,10.3,30.9,10.3z"/>
<circle class="st0" cx="29.5" cy="3.6" r="2.7"/>
<line class="st0" x1="37.5" y1="29" x2="8.1" y2="29"/>
<line class="st0" x1="5.5" y1="29" x2="6.8" y2="29"/>
</svg>
