<?xml version="1.0" encoding="UTF-8"?>
<svg width="44px" height="29px" viewBox="0 0 44 29" version="1.1" xmlns="http://www.w3.org/2000/svg" xmlns:xlink="http://www.w3.org/1999/xlink">
    <!-- Generator: Sketch 60.1 (88133) - https://sketch.com -->
    <title>icon-perf-optim</title>
    <desc>Created with Sketch.</desc>
    <defs>
        <path d="M31.1720274,10.6666667 C38.8220345,10.6666667 45.1363375,14.3405579 45.3288131,19.1262773 L45.3333333,19.3514124 L45.3333333,30.2816217 C45.3333333,33.4170903 43.3505767,35.6112839 39.9547745,36.9821693 L39.9543128,37.0689266 L39.7337451,37.0694688 C39.491371,37.1631229 39.2421084,37.2527409 38.9861539,37.3383634 C36.2096535,38.2671648 32.8265079,38.6666667 29.6823168,38.6666667 L29.6823168,38.6666667 L2.66666667,38.6666667 L2.66666667,26.6124294 L17.0106667,26.6116667 L17.0107214,19.3514124 C17.0107214,14.4562639 23.4024889,10.6666667 31.1720274,10.6666667 Z M31.1720274,28.0361582 C30.5650698,28.0361582 29.9665205,28.0130312 29.3787698,27.9680568 L29.3789761,28.0361582 L4.09417596,28.0361582 L4.09417596,37.2429379 L6.25266667,37.2426667 L6.25268035,35.2971751 L7.68018964,35.2971751 L7.67966667,37.2426667 L9.83866667,37.2426667 L9.83869404,33.5254237 L11.2662033,33.5254237 L11.2656667,37.2426667 L13.4246667,37.2426667 L13.4247077,35.2971751 L14.852217,35.2971751 L14.8516667,37.2426667 L17.0106667,37.2426667 L17.0107214,33.5254237 L18.4382307,33.5254237 L18.4376667,37.2426667 L20.5966667,37.2426667 L20.5967351,35.2971751 L22.0242444,35.2971751 L22.0236667,37.2426667 L24.1826667,37.2426667 L24.1827488,33.5254237 L25.6102581,33.5254237 L25.6096667,37.2426667 L27.7686667,37.2426667 L27.7687625,35.2971751 L29.1962718,35.2971751 L29.1956667,37.2426667 L29.6823168,37.2429379 C30.248802,37.2429379 30.8071993,37.2320511 31.3557544,37.2100512 L31.3547761,33.5254237 L32.7822854,33.5254237 L32.7821966,37.1258172 C33.525979,37.0671855 34.2473193,36.9862614 34.9413649,36.8824192 L34.9407898,35.2971751 L36.3682991,35.2971751 L36.3685189,36.6280569 C37.1330287,36.4682627 37.8554436,36.2764588 38.5279797,36.0516414 L38.5268035,33.5254237 L39.9543128,33.5254237 L39.9548981,35.489128 C42.4058925,34.3532261 43.905824,32.6409851 43.905824,30.2816217 L43.905824,30.2816217 L43.9068293,23.186494 C41.5990444,26.0904528 36.7392327,28.0361582 31.1720274,28.0361582 Z M18.4372254,23.186494 L18.4376667,26.6116667 L23.3594321,26.6124147 C21.2619041,25.7681673 19.5518851,24.5891056 18.4372254,23.186494 Z M31.1720274,12.0903955 C24.0878109,12.0903955 18.4382307,15.4399594 18.4382307,19.3514124 C18.4382307,23.2628655 24.0878109,26.6124294 31.1720274,26.6124294 C38.2562439,26.6124294 43.905824,23.2628655 43.905824,19.3514124 C43.905824,15.4399594 38.2562439,12.0903955 31.1720274,12.0903955 Z M31.1720274,15.9819209 C34.9927808,15.9819209 38.161306,17.3237624 38.161306,19.3514124 C38.161306,21.3790625 34.9927808,22.720904 31.1720274,22.720904 C27.3512739,22.720904 24.1827488,21.3790625 24.1827488,19.3514124 C24.1827488,17.3237624 27.3512739,15.9819209 31.1720274,15.9819209 Z M31.1720274,17.4056497 C28.0610285,17.4056497 25.6102581,18.4435286 25.6102581,19.3514124 C25.6102581,20.2592962 28.0610285,21.2971751 31.1720274,21.2971751 C34.2830263,21.2971751 36.7337967,20.2592962 36.7337967,19.3514124 C36.7337967,18.4435286 34.2830263,17.4056497 31.1720274,17.4056497 Z" id="path-1"></path>
    </defs>
    <g id="Visual-Design" stroke="none" stroke-width="1" fill="none" fill-rule="evenodd">
        <g id="04-Audience-Detail-(Desktop)" transform="translate(-102.000000, -590.000000)">
            <g id="Group-3" transform="translate(80.000000, 560.000000)">
                <g id="Icon-/-Diagnostics" transform="translate(20.000000, 20.000000)">
                    <mask id="mask-2" fill="white">
                        <use xlink:href="#path-1"></use>
                    </mask>
                    <use id="Combined-Shape" fill="#F88379" fill-rule="nonzero" xlink:href="#path-1"></use>
                    <g id="Colour-/-Theme-Red" mask="url(#mask-2)" fill="#F88379" fill-rule="evenodd">
                        <rect id="Rectangle" x="0" y="0" width="48" height="48"></rect>
                    </g>
                </g>
            </g>
        </g>
    </g>
</svg>