<?xml version="1.0" encoding="UTF-8"?>
<svg width="30px" height="34px" viewBox="0 0 30 34" version="1.1" xmlns="http://www.w3.org/2000/svg" xmlns:xlink="http://www.w3.org/1999/xlink">
    <!-- Generator: Sketch 51.3 (57544) - http://www.bohemiancoding.com/sketch -->
    <title>icon-nutrcoach-small</title>
    <desc>Created with Sketch.</desc>
    <defs></defs>
    <g id="Visual-Design" stroke="none" stroke-width="1" fill="none" fill-rule="evenodd">
        <g id="02-Service-Overview-(Desktop)" transform="translate(-667.000000, -128.000000)" stroke="#005E83" stroke-width="1.5">
            <g id="Group-8-Copy" transform="translate(80.000000, 129.000000)">
                <g id="icon-nutrcoach-small" transform="translate(588.000000, 0.000000)">
                    <path d="M20.238554,5.56843437 C18.4707806,5.50852438 16.7771771,6.28349043 15.325053,7.65793843 C14.5742962,8.36853628 13.4260296,8.36853628 12.6752727,7.65793843 C11.2231487,6.28349043 9.5295452,5.50852438 7.76168631,5.56843437 C3.03848146,5.72850567 -0.41819617,11.7744883 0.04092249,19.0724673 C0.50012662,26.3704463 4.7013232,32.1567914 9.424443,31.9967625 C10.1215377,31.9731127 10.790776,31.8205991 11.4236984,31.554592 C13.0568893,30.868196 14.9432662,30.868196 16.5764572,31.5545496 C17.2095504,31.8205567 17.8786178,31.9731128 18.5757125,31.9967626 C23.2988327,32.1567914 27.5000289,26.3704463 27.9590622,19.0724674 C28.4182659,11.7744883 24.9616741,5.72850567 20.238554,5.56843437 Z" id="Shape"></path>
                    <path d="M14.0000374,8.19088146 C14.0000374,8.19088146 13.3000374,2.78260466 16.8000374,-4.03478261e-06" id="Shape"></path>
                    <path d="M7.70003738,0.695648209 C7.70003738,4.15342783 10.5205986,6.95651777 14.0000374,6.95651777 C14.0000374,3.49873816 11.17938,0.695648209 7.70003738,0.695648209 Z" id="Shape"></path>
                </g>
            </g>
        </g>
    </g>
</svg>