<?xml version="1.0" encoding="utf-8"?>
<!-- Generator: Adobe Illustrator 21.1.0, SVG Export Plug-In . SVG Version: 6.00 Build 0)  -->
<svg version="1.1" id="Layer_1" xmlns="http://www.w3.org/2000/svg" xmlns:xlink="http://www.w3.org/1999/xlink" x="0px" y="0px"
	 viewBox="0 0 48 48" style="enable-background:new 0 0 48 48;" xml:space="preserve">
<style type="text/css">
	.st0{fill:#005E83;}
</style>
<g>
	<path id="Monogram" class="st0" d="M43.5,17.1c0.3,0,0.6,0,0.9-0.1L48,30.4L30.4,48l-24-6.4l-0.6-2.1c2.2-0.6,3.5-2.9,2.9-5.2
		c-0.1-0.4-0.3-0.7-0.4-1.1l5.9-5.9c1,0.8,2.2,1.4,3.6,1.4c2.4,0,4.4-1.6,5.2-3.7l5.4,1.5c0.4,1.3,1.6,2.3,3,2.3
		c1.7,0,3.1-1.4,3.1-3.1c0-0.3,0-0.6-0.1-0.8l1.9-1.9c0.4,0.1,0.7,0.2,1.2,0.2c1.7,0,3.1-1.4,3.1-3.1c0-0.4-0.1-0.8-0.2-1.2l1.9-1.9
		C42.6,17,43,17.1,43.5,17.1z M12.9,25.6l-6.1,6.1c-0.9-0.5-2-0.7-3.2-0.5L0,17.6L17.6,0l24,6.4l1.2,4.6c-1.4,0.3-2.4,1.6-2.4,3
		c0,0.5,0.1,0.9,0.3,1.4l-1.8,1.8c-0.4-0.2-0.9-0.3-1.4-0.3c-1.7,0-3.1,1.4-3.1,3.1c0,0.5,0.1,1,0.4,1.5L33.2,23
		c-0.5-0.3-1.1-0.5-1.7-0.5c-1.2,0-2.3,0.7-2.8,1.8l-5.3-1.4c-0.2-2.8-2.6-5.1-5.4-5.1c-3,0-5.5,2.4-5.5,5.5
		C12.4,24.1,12.6,24.9,12.9,25.6z"/>
</g>
</svg>
