<?xml version="1.0" encoding="utf-8"?>
<!-- Generator: Adobe Illustrator 22.1.0, SVG Export Plug-In . SVG Version: 6.00 Build 0)  -->
<svg version="1.1" id="Layer_1" xmlns="http://www.w3.org/2000/svg" xmlns:xlink="http://www.w3.org/1999/xlink" x="0px" y="0px"
	 viewBox="0 0 151.3 48" style="enable-background:new 0 0 151.3 48;" xml:space="preserve">
<style type="text/css">
	.st0{fill:#1C2E35;}
</style>
<g>
	<path class="st0" d="M17.5,6.4h5.3c5.9,0,10.4,3.6,10.4,9.7c0,6-4.4,9.6-10.4,9.6h-5.3L17.5,6.4L17.5,6.4z M30.5,16.1
		c0-5.2-3.8-7.2-8.2-7.2h-2.2v14.3h2.5C27,23.2,30.5,21.1,30.5,16.1z"/>
	<path class="st0" d="M36.2,6.4h2.7v19.3h-2.7V6.4z"/>
	<path class="st0" d="M54.6,21.2h-8.9l-1.7,4.5h-2.9l7.6-19.3h2.9l7.6,19.3h-2.9L54.6,21.2z M46.8,18.7h6.9l-3.5-9.1L46.8,18.7z"/>
	<path class="st0" d="M69.9,26.1c-5.7,0-10.1-4.4-10.1-10c0-5.6,4.4-10.1,10.1-10.1c2.9,0,5.6,1.2,7.5,3.1L75.7,11
		c-1.4-1.7-3.7-2.5-5.8-2.5c-4.2,0-7.5,3.4-7.5,7.6c0,4.2,3.2,7.5,7.5,7.5c3.3,0,6-2,6.3-6.1h-6.9V15h9.5v1.7
		C78.8,22.2,75.4,26.1,69.9,26.1z"/>
	<path class="st0" d="M85.3,9.9v15.8h-2.7V6.4h3.5l11,14.9V6.4h2.7v19.3H97L85.3,9.9z"/>
	<path class="st0" d="M112.9,26.1c-5.6,0-10.1-4.3-10.1-10c0-5.5,4.3-10,10.1-10c5.7,0,10.1,4.4,10.1,10S118.6,26.1,112.9,26.1z
		 M120.4,16.1c0-4.1-3.2-7.6-7.4-7.6c-4.3,0-7.4,3.5-7.4,7.6c0,4.2,3.3,7.5,7.4,7.5C117.1,23.7,120.4,20.3,120.4,16.1z"/>
	<path class="st0" d="M130.6,23.7c2.2,0,3.6-1.5,3.6-3.2c0-4.2-8.9-2.6-8.9-8.9c0-3.1,2.2-5.4,6-5.4c1.8,0,3.4,0.5,5,1.8l-1.5,2
		c-1.1-1-2.3-1.4-3.6-1.4c-2.1,0-3.3,1.1-3.3,2.7c0,4.4,8.9,2.5,8.9,9.1c0,3.5-2.5,5.8-6.2,5.8c-2.5,0-4.9-1.1-6.3-3.3L126,21
		C127,22.3,128.4,23.7,130.6,23.7z"/>
	<path class="st0" d="M140,6.4h11.3V9h-8.6v5.5h7.2v2.5h-7.2v6.3h8.6v2.5H140V6.4z"/>
</g>
<g>
	<path class="st0" d="M17.5,32.7h3c2.3,0,3.6,1,3.6,2.8c0,1.2-0.6,1.9-1.5,2.3c1.3,0.3,2,1.4,2,2.7c0,2.1-1.7,3-3.8,3h-3.1
		L17.5,32.7L17.5,32.7z M22.5,35.6c0-1.1-0.7-1.5-2-1.5H19v3h1.7C21.6,37.1,22.5,36.8,22.5,35.6z M22.9,40.3c0-1.2-0.9-1.8-2.5-1.8
		h-1.5V42h1.6C21.9,42,22.9,41.6,22.9,40.3z"/>
	<path class="st0" d="M27.3,32.7h6.3v1.4h-4.8v3h4v1.4h-4V42h4.8v1.4h-6.3V32.7z"/>
	<path class="st0" d="M39.9,38.8h-1.8v4.7h-1.5V32.7h3.9c2.1,0,3.6,0.9,3.6,3c0,1.7-0.9,2.7-2.6,3l2.8,4.8h-1.6L39.9,38.8z
		 M42.7,35.7c0-1.2-0.7-1.6-2.1-1.6h-2.5v3.3h2.5C41.8,37.3,42.7,37,42.7,35.7z"/>
	<path class="st0" d="M47.1,32.7h1.5V42h5.1v1.4h-6.5V32.7z"/>
	<path class="st0" d="M56.3,32.7h1.5v10.8h-1.5V32.7z"/>
	<path class="st0" d="M62.8,34.6v8.8h-1.5V32.7h1.9l6.1,8.3v-8.3h1.5v10.8h-1.5L62.8,34.6z"/>
</g>
</svg>
