<?xml version="1.0" encoding="utf-8"?>
<!-- Generator: Adobe Illustrator 21.1.0, SVG Export Plug-In . SVG Version: 6.00 Build 0)  -->
<svg version="1.1" id="Layer_1" xmlns="http://www.w3.org/2000/svg" xmlns:xlink="http://www.w3.org/1999/xlink" x="0px" y="0px"
	 viewBox="0 0 121 48" style="enable-background:new 0 0 121 48;" xml:space="preserve">
<style type="text/css">
	.st0{fill:#1C2E35;}
</style>
<path id="DIAGNOSE" class="st0" d="M9.8,27V12.2H14c4.7,0,8,2.8,8,7.4S18.7,27,14,27H9.8z M13.9,24.5c2.9,0,5.4-1.3,5.4-4.9
	s-2.5-4.9-5.4-4.9h-1.5v9.8H13.9z M25.2,27V12.2h2.6V27H25.2z M42,27l-1.2-3.2h-6.4L33.2,27h-2.8l5.9-14.8H39L44.9,27H42z
	 M37.6,15.5l-2.3,5.9h4.5L37.6,15.5z M60.5,20.2c0,3.8-2.2,7.1-6.7,7.1S46,23.9,46,19.6c0-4.2,3.3-7.7,7.7-7.7
	c2.2,0,4.2,0.9,5.6,2.3L57.7,16c-1.1-1.2-2.6-1.7-3.9-1.7c-3,0-5.2,2.4-5.2,5.3c0,2.9,2.2,5.2,5.3,5.2c2.2,0,3.8-1.2,4.1-3.9h-4.7
	v-2.5h7.3V20.2z M75.1,27l-8.1-11.3V27h-2.6V12.2h3.3l7.6,10.5V12.2h2.6V27H75.1z M96.5,19.6c0,4.3-3.4,7.7-7.7,7.7
	c-4.3,0-7.7-3.3-7.7-7.6c0-4.2,3.3-7.7,7.7-7.7C93.1,11.9,96.5,15.3,96.5,19.6z M88.8,24.9c2.8,0,5.1-2.3,5.1-5.2s-2.2-5.3-5.1-5.3
	c-2.9,0-5.1,2.4-5.1,5.3C83.6,22.5,85.9,24.9,88.8,24.9z M99.9,22.9c0.8,0.9,1.8,1.9,3.4,1.9c1.7,0,2.3-1,2.3-2
	c0-2.9-6.7-1.8-6.7-6.7c0-2.7,2-4.3,4.8-4.3c1.3,0,2.6,0.4,4,1.4l-1.4,2c-0.8-0.7-1.8-1-2.7-1c-1.3,0-2.1,0.6-2.1,1.6
	c0,3,6.7,1.6,6.7,6.8c0,2.6-1.7,4.5-5,4.5c-1.7,0-3.5-0.5-5.1-2.6L99.9,22.9z M111.6,27V12.2h9.4v2.5h-6.8V18h5.3v2.5h-5.3v3.9h6.8
	V27H111.6z"/>
<path id="BERLIN_1_" class="st0" d="M9.8,42.4V32h2.9c2.2,0,3.4,1,3.4,2.7c0,1.2-0.6,1.8-1.5,2.2c1.3,0.3,1.9,1.3,1.9,2.6
	c0,2-1.7,2.9-3.7,2.9H9.8z M12.9,36.3c0.9,0,1.8-0.3,1.8-1.4c0-1-0.7-1.5-1.9-1.5h-1.5v2.9H12.9z M12.7,41c1.3,0,2.3-0.4,2.3-1.7
	c0-1.2-0.9-1.7-2.4-1.7h-1.5V41H12.7z M20.2,42.4V32h6v1.4h-4.6v2.9h3.8v1.3h-3.8V41h4.6v1.3H20.2z M36,42.4l-2.6-4.5h-1.8v4.5h-1.4
	V32H34c2,0,3.4,0.9,3.4,2.9c0,1.7-0.9,2.6-2.5,2.8l2.7,4.6H36z M34,36.5c1.2,0,2-0.3,2-1.6c0-1.1-0.7-1.6-2-1.6h-2.4v3.1H34z
	 M41.2,42.4V32h1.4v9h4.9v1.3H41.2z M51,42.4V32h1.4v10.4H51z M64.5,42.4l-6.3-8.5v8.5h-1.4V32h1.8l5.9,8v-8H66v10.4H64.5z"/>
</svg>
