<?xml version="1.0" encoding="UTF-8"?>
<svg width="169px" height="48px" viewBox="0 0 169 48" version="1.1" xmlns="http://www.w3.org/2000/svg" xmlns:xlink="http://www.w3.org/1999/xlink">
    <g stroke="none" stroke-width="1" fill="none" fill-rule="evenodd">

        <path d="M43.4908673,17.1419434 C43.8082035,17.1419434 44.1143588,17.0939322 44.4027565,17.005802 L48,30.4308554 L30.4307591,48 L6.43061115,41.5691281 L5.86400996,39.4536751 C8.07779942,38.8048661 9.38167274,36.506247 8.78152928,34.2658333 C8.67925826,33.8843744 8.52470077,33.5318537 8.33397024,33.2072847 L14.2357646,27.3055227 C15.1986249,28.1526247 16.4577752,28.670225 17.8409003,28.670225 C20.2431184,28.670225 22.2790023,27.1187394 23.0126571,24.9644828 L28.4359809,26.4176441 C28.7908055,27.7504486 30.0022731,28.7336919 31.4468924,28.7336919 C33.1697152,28.7336919 34.566323,27.3370917 34.566323,25.6146072 C34.566323,25.3229227 34.5232443,25.0417611 34.4485963,24.774411 L36.3318958,22.8572509 C36.6903376,23.0006269 37.0800198,23.0815225 37.4894327,23.0815225 C39.2122555,23.0815225 40.6088634,21.6849223 40.6088634,19.9624378 C40.6088634,19.5332965 40.5220481,19.1248723 40.3655175,18.752621 L42.2172478,16.8680164 C42.6066012,17.0426326 43.0367314,17.1419434 43.4908673,17.1419434 Z M12.9308718,25.5955672 L6.82749507,31.6989105 C5.9044251,31.1546738 4.77845732,30.9599982 3.66103952,31.2319521 L0,17.5691446 L17.5692409,0 L41.5693888,6.43087187 L42.7897354,10.9853603 C41.4052948,11.30401 40.3717327,12.5414497 40.3717327,14.0228916 C40.3717327,14.5112249 40.4871575,14.9712775 40.6870958,15.3829901 L38.912973,17.1893298 C38.4858024,16.9696621 38.002728,16.8430572 37.4893999,16.8430572 C35.7665771,16.8430572 34.3702981,18.2396573 34.3702981,19.9624707 C34.3702981,20.4951979 34.5044672,20.9966848 34.7399207,21.4356915 L33.1815208,23.0220346 C32.6852926,22.6895734 32.0890953,22.4948978 31.4468596,22.4948978 C30.2084265,22.4948978 29.141651,23.2186833 28.6381882,24.264407 L23.2895124,22.831634 C23.0977953,19.9858186 20.7350387,17.7358684 17.8408674,17.7358684 C14.8214059,17.7358684 12.3738072,20.1834538 12.3738072,23.2028988 C12.3738072,24.0621679 12.5773627,24.8721105 12.9308718,25.5955672 Z" id="Monogram" fill="#005E83"></path>

        <path d="M65.921875,25 L65.921875,7.234375 L70.9609375,7.234375 C72.8437594,7.234375 74.5038991,7.58593398 75.9414062,8.2890625 C77.3789134,8.99219102 78.499996,10.0175714 79.3046875,11.3652344 C80.109379,12.7128974 80.5117188,14.2968659 80.5117188,16.1171875 C80.5117188,17.9375091 80.109379,19.5214776 79.3046875,20.8691406 C78.499996,22.2168036 77.3789134,23.242184 75.9414062,23.9453125 C74.5038991,24.648441 72.8437594,25 70.9609375,25 L65.921875,25 Z M69.0625,21.9765625 L70.890625,21.9765625 C71.8046921,21.9765625 72.6406212,21.8710948 73.3984375,21.6601562 C74.1562538,21.4492177 74.8378876,21.1191429 75.4433594,20.6699219 C76.0488312,20.2207009 76.5214827,19.6093789 76.8613281,18.8359375 C77.2011736,18.0624961 77.3710938,17.1562552 77.3710938,16.1171875 C77.3710938,15.0781198 77.2011736,14.1718789 76.8613281,13.3984375 C76.5214827,12.6249961 76.0488312,12.0156272 75.4433594,11.5703125 C74.8378876,11.1249978 74.1562538,10.7968761 73.3984375,10.5859375 C72.6406212,10.3749989 71.8046921,10.2695312 70.890625,10.2695312 L69.0625,10.2695312 L69.0625,21.9765625 Z M83.2070312,11.1601562 C82.8476545,10.8007795 82.6679688,10.3593776 82.6679688,9.8359375 C82.6679688,9.31249738 82.8476545,8.87304865 83.2070312,8.51757812 C83.566408,8.1621076 84.0117161,7.984375 84.5429688,7.984375 C85.0664089,7.984375 85.5039045,8.16015449 85.8554688,8.51171875 C86.207033,8.86328301 86.3828125,9.30468484 86.3828125,9.8359375 C86.3828125,10.3671902 86.207033,10.8105451 85.8554688,11.1660156 C85.5039045,11.5214862 85.0664089,11.6992188 84.5429688,11.6992188 C84.0117161,11.6992188 83.566408,11.519533 83.2070312,11.1601562 Z M83.0546875,25 L83.0546875,13.5976562 L86.0078125,13.5976562 L86.0078125,25 L83.0546875,25 Z M88.6679688,19.3398438 C88.6679688,17.6835855 89.2558535,16.2773495 90.4316406,15.1210938 C91.6074278,13.964838 93.0351479,13.3867188 94.7148438,13.3867188 C95.9335998,13.3867188 96.9882768,13.7382777 97.8789062,14.4414062 L97.8789062,13.5976562 L100.832031,13.5976562 L100.832031,25 L97.8789062,25 L97.8789062,24.2617188 C97.0117144,24.9648473 95.9570375,25.3164062 94.7148438,25.3164062 C93.6132757,25.3164062 92.5976609,25.0488308 91.6679688,24.5136719 C90.7382766,23.9785129 90.0058621,23.2519577 89.4707031,22.3339844 C88.9355442,21.416011 88.6679688,20.4179741 88.6679688,19.3398438 Z M91.5625,19.3398438 C91.5625,20.1914105 91.8730438,20.9277313 92.4941406,21.5488281 C93.1152375,22.169925 93.8554645,22.4804688 94.7148438,22.4804688 C95.5898481,22.4804688 96.3359344,22.169925 96.953125,21.5488281 C97.5703156,20.9277313 97.8789062,20.1914105 97.8789062,19.3398438 C97.8789062,18.4960895 97.5703156,17.763675 96.953125,17.1425781 C96.3359344,16.5214813 95.5898481,16.2109375 94.7148438,16.2109375 C93.8554645,16.2109375 93.1152375,16.5214813 92.4941406,17.1425781 C91.8730438,17.763675 91.5625,18.4960895 91.5625,19.3398438 Z M103.46875,19.3398438 C103.46875,17.6835855 104.056635,16.2773495 105.232422,15.1210938 C106.408209,13.964838 107.835929,13.3867188 109.515625,13.3867188 C110.734381,13.3867188 111.789058,13.7382777 112.679688,14.4414062 L112.679688,13.5976562 L115.632812,13.5976562 L115.632812,24.1796875 C115.632812,25.0234417 115.556641,25.7890591 115.404297,26.4765625 C115.251952,27.1640659 115.054689,27.7421852 114.8125,28.2109375 C114.570311,28.6796898 114.273439,29.0917951 113.921875,29.4472656 C113.570311,29.8027362 113.216799,30.0800771 112.861328,30.2792969 C112.505858,30.4785166 112.11719,30.6406244 111.695312,30.765625 C111.273435,30.8906256 110.894533,30.9726561 110.558594,31.0117188 C110.222655,31.0507814 109.875002,31.0703125 109.515625,31.0703125 C108.445307,31.0703125 107.457036,30.8164088 106.550781,30.3085938 C105.644527,29.8007787 104.921878,29.121098 104.382812,28.2695312 L107.089844,27.0859375 C107.38672,27.4375018 107.748045,27.7167958 108.173828,27.9238281 C108.599612,28.1308604 109.046873,28.234375 109.515625,28.234375 C110.476567,28.234375 111.244138,27.9628933 111.818359,27.4199219 C112.392581,26.8769504 112.679688,25.9921936 112.679688,24.765625 L112.679688,24.2617188 C111.812496,24.9648473 110.757819,25.3164062 109.515625,25.3164062 C108.414057,25.3164062 107.398442,25.0488308 106.46875,24.5136719 C105.539058,23.9785129 104.806643,23.2519577 104.271484,22.3339844 C103.736325,21.416011 103.46875,20.4179741 103.46875,19.3398438 Z M106.363281,19.3398438 C106.363281,20.1914105 106.673825,20.9277313 107.294922,21.5488281 C107.916019,22.169925 108.656246,22.4804688 109.515625,22.4804688 C110.390629,22.4804688 111.136716,22.169925 111.753906,21.5488281 C112.371097,20.9277313 112.679688,20.1914105 112.679688,19.3398438 C112.679688,18.4960895 112.371097,17.763675 111.753906,17.1425781 C111.136716,16.5214813 110.390629,16.2109375 109.515625,16.2109375 C108.656246,16.2109375 107.916019,16.5214813 107.294922,17.1425781 C106.673825,17.763675 106.363281,18.4960895 106.363281,19.3398438 Z M119.230469,25 L119.230469,13.5976562 L122.183594,13.5976562 L122.183594,14.4414062 C122.472658,14.2226552 122.716796,14.052735 122.916016,13.9316406 C123.115235,13.8105463 123.421873,13.6894537 123.835938,13.5683594 C124.250002,13.447265 124.699216,13.3867188 125.183594,13.3867188 C125.824222,13.3867188 126.417966,13.484374 126.964844,13.6796875 C127.511721,13.875001 128.003904,14.1679668 128.441406,14.5585938 C128.878908,14.9492207 129.220702,15.4746061 129.466797,16.1347656 C129.712892,16.7949252 129.835938,17.5585894 129.835938,18.4257812 L129.835938,25 L126.882812,25 L126.882812,18.90625 C126.882812,17.109366 126.097664,16.2109375 124.527344,16.2109375 C122.964836,16.2109375 122.183594,17.0937412 122.183594,18.859375 L122.183594,25 L119.230469,25 Z M132.226562,19.3398438 C132.226562,17.6835855 132.814447,16.2773495 133.990234,15.1210938 C135.166022,13.964838 136.593742,13.3867188 138.273438,13.3867188 C139.382818,13.3867188 140.404292,13.650388 141.337891,14.1777344 C142.271489,14.7050808 143.005857,15.4257767 143.541016,16.3398438 C144.076175,17.2539108 144.34375,18.2539008 144.34375,19.3398438 C144.34375,20.4179741 144.076175,21.416011 143.541016,22.3339844 C143.005857,23.2519577 142.271489,23.9785129 141.337891,24.5136719 C140.404292,25.0488308 139.382818,25.3164062 138.273438,25.3164062 C137.171869,25.3164062 136.156255,25.0488308 135.226562,24.5136719 C134.29687,23.9785129 133.564456,23.2519577 133.029297,22.3339844 C132.494138,21.416011 132.226562,20.4179741 132.226562,19.3398438 Z M135.121094,19.3398438 C135.121094,20.1914105 135.431638,20.9277313 136.052734,21.5488281 C136.673831,22.169925 137.414058,22.4804688 138.273438,22.4804688 C139.148442,22.4804688 139.894528,22.169925 140.511719,21.5488281 C141.128909,20.9277313 141.4375,20.1914105 141.4375,19.3398438 C141.4375,18.4960895 141.128909,17.763675 140.511719,17.1425781 C139.894528,16.5214813 139.148442,16.2109375 138.273438,16.2109375 C137.414058,16.2109375 136.673831,16.5214813 136.052734,17.1425781 C135.431638,17.763675 135.121094,18.4960895 135.121094,19.3398438 Z M145.820312,23.6992188 L147.378906,21.4492188 C147.855471,21.8632833 148.37695,22.1621085 148.943359,22.3457031 C149.509768,22.5292978 150.03906,22.6210938 150.53125,22.6210938 C151.015627,22.6210938 151.367186,22.5410164 151.585938,22.3808594 C151.804689,22.2207023 151.914062,22.0234387 151.914062,21.7890625 C151.914062,21.5624989 151.808595,21.3691414 151.597656,21.2089844 C151.386718,21.0488273 151.11133,20.9179693 150.771484,20.8164062 C150.431639,20.7148432 150.056643,20.6093755 149.646484,20.5 C149.236326,20.3906245 148.824221,20.251954 148.410156,20.0839844 C147.996092,19.9160148 147.619142,19.7128918 147.279297,19.4746094 C146.939451,19.2363269 146.664064,18.9082052 146.453125,18.4902344 C146.242186,18.0722635 146.136719,17.5859403 146.136719,17.03125 C146.136719,15.9609321 146.498043,15.0859409 147.220703,14.40625 C147.943363,13.7265591 148.925775,13.3867188 150.167969,13.3867188 C150.832035,13.3867188 151.544918,13.4941396 152.306641,13.7089844 C153.068363,13.9238292 153.738278,14.2968723 154.316406,14.828125 L152.757812,16.9375 C151.914058,16.3593721 151.058598,16.0703125 150.191406,16.0703125 C149.753904,16.0703125 149.44922,16.1425774 149.277344,16.2871094 C149.105468,16.4316413 149.019531,16.6015615 149.019531,16.796875 C149.019531,17.0078136 149.124999,17.1933586 149.335938,17.3535156 C149.546876,17.5136727 149.820311,17.6503901 150.15625,17.7636719 C150.492189,17.8769537 150.863279,17.99414 151.269531,18.1152344 C151.675783,18.2363287 152.080076,18.388671 152.482422,18.5722656 C152.884768,18.7558603 153.253905,18.9707019 153.589844,19.2167969 C153.925783,19.4628919 154.199218,19.798826 154.410156,20.2246094 C154.621095,20.6503928 154.726562,21.136716 154.726562,21.6835938 C154.726562,22.7617241 154.343754,23.6367154 153.578125,24.3085938 C152.812496,24.9804721 151.730476,25.3164062 150.332031,25.3164062 C149.378901,25.3164062 148.546879,25.1699233 147.835938,24.8769531 C147.124996,24.5839829 146.453128,24.1914087 145.820312,23.6992188 Z M156.648438,19.4101562 C156.648438,18.6054647 156.787108,17.8378943 157.064453,17.1074219 C157.341798,16.3769495 157.730466,15.7363309 158.230469,15.1855469 C158.730471,14.6347629 159.353512,14.1972672 160.099609,13.8730469 C160.845707,13.5488265 161.660152,13.3867188 162.542969,13.3867188 C163.636724,13.3867188 164.624996,13.6601535 165.507812,14.2070312 C166.390629,14.753909 167.074216,15.4785111 167.558594,16.3808594 C168.042971,17.2832076 168.285156,18.2695259 168.285156,19.3398438 C168.285156,19.6757829 168.261719,19.9882798 168.214844,20.2773438 L159.519531,20.2773438 C159.691407,20.9960973 160.056638,21.5703104 160.615234,22 C161.173831,22.4296896 161.867183,22.6445312 162.695312,22.6445312 C163.24219,22.6445312 163.765623,22.5390636 164.265625,22.328125 C164.765627,22.1171864 165.17578,21.8007834 165.496094,21.3789062 L167.511719,22.984375 C166.996091,23.7109411 166.312504,24.2812479 165.460938,24.6953125 C164.609371,25.1093771 163.695317,25.3164062 162.71875,25.3164062 C161.593744,25.3164062 160.566411,25.0585963 159.636719,24.5429688 C158.707027,24.0273412 157.976565,23.3164108 157.445312,22.4101562 C156.91406,21.5039017 156.648438,20.5039117 156.648438,19.4101562 Z M159.625,18.109375 L165.308594,18.109375 C165.222656,17.5312471 164.914065,17.046877 164.382812,16.65625 C163.85156,16.265623 163.230472,16.0703125 162.519531,16.0703125 C161.83984,16.0703125 161.24219,16.2558575 160.726562,16.6269531 C160.210935,16.9980487 159.843751,17.4921844 159.625,18.109375 Z" id="Diagnose" fill="#1C2E35"></path>

        <path d="M65.359375,44 L65.359375,32.15625 L68.640625,32.15625 C69.8958396,32.15625 70.8632779,32.4257786 71.5429688,32.9648438 C72.2226596,33.5039089 72.5625,34.2708284 72.5625,35.265625 C72.5625,36.5104229 71.9974015,37.3411438 70.8671875,37.7578125 C71.5755244,37.9296884 72.1119773,38.2773411 72.4765625,38.8007812 C72.8411477,39.3242214 73.0234375,39.9531213 73.0234375,40.6875 C73.0234375,41.1406273 72.9518236,41.5520815 72.8085938,41.921875 C72.6653639,42.2916685 72.464845,42.6041654 72.2070312,42.859375 C71.9492175,43.1145846 71.6419289,43.3281241 71.2851562,43.5 C70.9283836,43.6718759 70.5403667,43.7981767 70.1210938,43.8789062 C69.7018208,43.9596358 69.2500024,44 68.765625,44 L65.359375,44 Z M66.9921875,42.4609375 L68.71875,42.4609375 C69.5416708,42.4609375 70.1927059,42.3098973 70.671875,42.0078125 C71.1510441,41.7057277 71.390625,41.2187534 71.390625,40.546875 C71.390625,39.8906217 71.1562523,39.3984391 70.6875,39.0703125 C70.2187477,38.7421859 69.5520877,38.578125 68.6875,38.578125 L66.9921875,38.578125 L66.9921875,42.4609375 Z M66.9921875,37.0390625 L68.8671875,37.0390625 C70.2421944,37.0390625 70.9296875,36.4895888 70.9296875,35.390625 C70.9296875,34.8229138 70.7395852,34.3984389 70.359375,34.1171875 C69.9791648,33.8359361 69.427087,33.6953125 68.703125,33.6953125 L66.9921875,33.6953125 L66.9921875,37.0390625 Z M76.9375,44 L76.9375,32.15625 L83.8515625,32.15625 L83.8515625,33.7109375 L78.5703125,33.7109375 L78.5703125,37.0546875 L82.953125,37.0546875 L82.953125,38.59375 L78.5703125,38.59375 L78.5703125,42.4609375 L83.8515625,42.4609375 L83.8515625,44 L76.9375,44 Z M88.0546875,44 L88.0546875,32.15625 L92.40625,32.15625 C93.6250061,32.15625 94.5833298,32.4309868 95.28125,32.9804688 C95.9791702,33.5299507 96.328125,34.3723902 96.328125,35.5078125 C96.328125,36.4401088 96.0859399,37.1783827 95.6015625,37.7226562 C95.1171851,38.2669298 94.4192754,38.6093743 93.5078125,38.75 L96.6015625,44 L94.7265625,44 L91.71875,38.8515625 L89.6875,38.8515625 L89.6875,44 L88.0546875,44 Z M89.6875,37.296875 L92.390625,37.296875 C92.7447934,37.296875 93.0546862,37.2695315 93.3203125,37.2148438 C93.5859388,37.160156 93.8255198,37.0690111 94.0390625,36.9414062 C94.2526052,36.8138014 94.415364,36.6315116 94.5273438,36.3945312 C94.6393235,36.1575509 94.6953125,35.8671892 94.6953125,35.5234375 C94.6953125,34.8984344 94.5039082,34.4401056 94.1210938,34.1484375 C93.7382793,33.8567694 93.1614622,33.7109375 92.390625,33.7109375 L89.6875,33.7109375 L89.6875,37.296875 Z M100.351562,44 L100.351562,32.15625 L101.984375,32.15625 L101.984375,42.4609375 L107.554688,42.4609375 L107.554688,44 L100.351562,44 Z M111.273438,44 L111.273438,32.15625 L112.90625,32.15625 L112.90625,44 L111.273438,44 Z M117.625,44 L117.625,32.15625 L119.734375,32.15625 L126.476562,41.265625 L126.476562,32.15625 L128.109375,32.15625 L128.109375,44 L126.40625,44 L119.257812,34.3046875 L119.257812,44 L117.625,44 Z" id="BERLIN" fill="#1C2E35"></path>
        
    </g>
</svg>