<?xml version="1.0" encoding="utf-8"?>
<!-- Generator: Adobe Illustrator 22.1.0, SVG Export Plug-In . SVG Version: 6.00 Build 0)  -->
<svg version="1.1" id="Layer_1" xmlns="http://www.w3.org/2000/svg" xmlns:xlink="http://www.w3.org/1999/xlink" x="0px" y="0px"
	 viewBox="0 0 199.4 48" style="enable-background:new 0 0 199.4 48;" xml:space="preserve">
<style type="text/css">
	.st0{fill:#005E83;}
	.st1{fill:#1C2E35;}
</style>
<path id="Monogram" class="st0" d="M43.5,17.1c0.3,0,0.6,0,0.9-0.1L48,30.4L30.4,48l-24-6.4l-0.6-2.1c2.2-0.6,3.5-2.9,2.9-5.2
	c-0.1-0.4-0.3-0.7-0.4-1.1l5.9-5.9c1,0.8,2.2,1.4,3.6,1.4c2.4,0,4.4-1.6,5.2-3.7l5.4,1.5c0.4,1.3,1.6,2.3,3,2.3
	c1.7,0,3.1-1.4,3.1-3.1c0-0.3,0-0.6-0.1-0.8l1.9-1.9c0.4,0.1,0.7,0.2,1.2,0.2c1.7,0,3.1-1.4,3.1-3.1c0-0.4-0.1-0.8-0.2-1.2l1.9-1.9
	C42.6,17,43,17.1,43.5,17.1z M12.9,25.6l-6.1,6.1c-0.9-0.5-2-0.7-3.2-0.5L0,17.6L17.6,0l24,6.4l1.2,4.6c-1.4,0.3-2.4,1.6-2.4,3
	c0,0.5,0.1,0.9,0.3,1.4l-1.8,1.8c-0.4-0.2-0.9-0.3-1.4-0.3c-1.7,0-3.1,1.4-3.1,3.1c0,0.5,0.1,1,0.4,1.5L33.2,23
	c-0.5-0.3-1.1-0.5-1.7-0.5c-1.2,0-2.3,0.7-2.8,1.8l-5.3-1.4c-0.2-2.8-2.6-5.1-5.4-5.1c-3,0-5.5,2.4-5.5,5.5
	C12.4,24.1,12.6,24.9,12.9,25.6z"/>
<g id="Layer_2_2_">
	<g>
		<path class="st1" d="M65.5,6.4h5.3c5.9,0,10.4,3.6,10.4,9.7c0,6-4.4,9.6-10.4,9.6h-5.3L65.5,6.4L65.5,6.4z M78.5,16.1
			c0-5.2-3.8-7.2-8.2-7.2h-2.2v14.3h2.5C75,23.2,78.5,21.1,78.5,16.1z"/>
		<path class="st1" d="M84.2,6.4h2.7v19.3h-2.7V6.4z"/>
		<path class="st1" d="M102.6,21.2h-8.9L92,25.7h-2.9l7.6-19.3h2.9l7.6,19.3h-2.9L102.6,21.2z M94.7,18.7h6.9l-3.5-9.1L94.7,18.7z"
			/>
		<path class="st1" d="M117.9,26.1c-5.7,0-10.1-4.4-10.1-10c0-5.6,4.4-10.1,10.1-10.1c2.9,0,5.6,1.2,7.5,3.1l-1.7,1.8
			c-1.4-1.7-3.7-2.5-5.8-2.5c-4.2,0-7.5,3.4-7.5,7.6c0,4.2,3.2,7.5,7.5,7.5c3.3,0,6-2,6.3-6.1h-6.9V15h9.5v1.7
			C126.8,22.2,123.3,26.1,117.9,26.1z"/>
		<path class="st1" d="M133.3,9.9v15.8h-2.7V6.4h3.5l11,14.9V6.4h2.7v19.3H145L133.3,9.9z"/>
		<path class="st1" d="M160.9,26.1c-5.6,0-10.1-4.3-10.1-10c0-5.5,4.3-10,10.1-10c5.7,0,10.1,4.4,10.1,10S166.5,26.1,160.9,26.1z
			 M168.3,16.1c0-4.1-3.2-7.6-7.4-7.6c-4.3,0-7.4,3.5-7.4,7.6c0,4.2,3.3,7.5,7.4,7.5C165.1,23.7,168.3,20.3,168.3,16.1z"/>
		<path class="st1" d="M178.5,23.7c2.2,0,3.6-1.5,3.6-3.2c0-4.2-8.9-2.6-8.9-8.9c0-3.1,2.2-5.4,6-5.4c1.8,0,3.4,0.5,5,1.8l-1.5,2
			c-1.1-1-2.3-1.4-3.6-1.4c-2.1,0-3.3,1.1-3.3,2.7c0,4.4,8.9,2.5,8.9,9.1c0,3.5-2.5,5.8-6.2,5.8c-2.5,0-4.9-1.1-6.3-3.3L174,21
			C175,22.3,176.4,23.7,178.5,23.7z"/>
		<path class="st1" d="M188,6.4h11.3V9h-8.6v5.5h7.2v2.5h-7.2v6.3h8.6v2.5H188V6.4z"/>
	</g>
	<g>
		<path class="st1" d="M65.5,32.7h3c2.3,0,3.6,1,3.6,2.8c0,1.2-0.6,1.9-1.5,2.3c1.3,0.3,2,1.4,2,2.7c0,2.1-1.7,3-3.8,3h-3.1
			L65.5,32.7L65.5,32.7z M70.5,35.6c0-1.1-0.7-1.5-2-1.5H67v3h1.7C69.6,37.1,70.5,36.8,70.5,35.6z M70.9,40.3c0-1.2-0.9-1.8-2.5-1.8
			h-1.5V42h1.6C69.9,42,70.9,41.6,70.9,40.3z"/>
		<path class="st1" d="M75.2,32.7h6.3v1.4h-4.8v3h4v1.4h-4V42h4.8v1.4h-6.3V32.7z"/>
		<path class="st1" d="M87.9,38.8h-1.8v4.7h-1.5V32.7h3.9c2.1,0,3.6,0.9,3.6,3c0,1.7-0.9,2.7-2.6,3l2.8,4.8h-1.6L87.9,38.8z
			 M90.7,35.7c0-1.2-0.7-1.6-2.1-1.6h-2.5v3.3h2.5C89.8,37.3,90.7,37,90.7,35.7z"/>
		<path class="st1" d="M95.1,32.7h1.5V42h5.1v1.4h-6.5V32.7z"/>
		<path class="st1" d="M104.2,32.7h1.5v10.8h-1.5V32.7z"/>
		<path class="st1" d="M110.8,34.6v8.8h-1.5V32.7h1.9l6.1,8.3v-8.3h1.5v10.8h-1.5L110.8,34.6z"/>
	</g>
</g>
</svg>
