<?xml version="1.0" encoding="UTF-8"?>
<svg width="169px" height="48px" viewBox="0 0 169 48" version="1.1" xmlns="http://www.w3.org/2000/svg" xmlns:xlink="http://www.w3.org/1999/xlink">
    <g stroke="none" stroke-width="1" fill="none" fill-rule="evenodd">

        <path d="M43.4908673,17.1419434 C43.8082035,17.1419434 44.1143588,17.0939322 44.4027565,17.005802 L48,30.4308554 L30.4307591,48 L6.43061115,41.5691281 L5.86400996,39.4536751 C8.07779942,38.8048661 9.38167274,36.506247 8.78152928,34.2658333 C8.67925826,33.8843744 8.52470077,33.5318537 8.33397024,33.2072847 L14.2357646,27.3055227 C15.1986249,28.1526247 16.4577752,28.670225 17.8409003,28.670225 C20.2431184,28.670225 22.2790023,27.1187394 23.0126571,24.9644828 L28.4359809,26.4176441 C28.7908055,27.7504486 30.0022731,28.7336919 31.4468924,28.7336919 C33.1697152,28.7336919 34.566323,27.3370917 34.566323,25.6146072 C34.566323,25.3229227 34.5232443,25.0417611 34.4485963,24.774411 L36.3318958,22.8572509 C36.6903376,23.0006269 37.0800198,23.0815225 37.4894327,23.0815225 C39.2122555,23.0815225 40.6088634,21.6849223 40.6088634,19.9624378 C40.6088634,19.5332965 40.5220481,19.1248723 40.3655175,18.752621 L42.2172478,16.8680164 C42.6066012,17.0426326 43.0367314,17.1419434 43.4908673,17.1419434 Z M12.9308718,25.5955672 L6.82749507,31.6989105 C5.9044251,31.1546738 4.77845732,30.9599982 3.66103952,31.2319521 L0,17.5691446 L17.5692409,0 L41.5693888,6.43087187 L42.7897354,10.9853603 C41.4052948,11.30401 40.3717327,12.5414497 40.3717327,14.0228916 C40.3717327,14.5112249 40.4871575,14.9712775 40.6870958,15.3829901 L38.912973,17.1893298 C38.4858024,16.9696621 38.002728,16.8430572 37.4893999,16.8430572 C35.7665771,16.8430572 34.3702981,18.2396573 34.3702981,19.9624707 C34.3702981,20.4951979 34.5044672,20.9966848 34.7399207,21.4356915 L33.1815208,23.0220346 C32.6852926,22.6895734 32.0890953,22.4948978 31.4468596,22.4948978 C30.2084265,22.4948978 29.141651,23.2186833 28.6381882,24.264407 L23.2895124,22.831634 C23.0977953,19.9858186 20.7350387,17.7358684 17.8408674,17.7358684 C14.8214059,17.7358684 12.3738072,20.1834538 12.3738072,23.2028988 C12.3738072,24.0621679 12.5773627,24.8721105 12.9308718,25.5955672 Z" id="Monogram" fill="#005E83"></path>

        <path d="M57.7,27 L57.7,12.2 L61.9,12.2 C66.62,12.2 69.86,14.98 69.86,19.6 C69.86,24.22 66.62,27 61.9,27 L57.7,27 Z M61.84,24.48 C64.78,24.48 67.24,23.18 67.24,19.6 C67.24,16.02 64.78,14.72 61.84,14.72 L60.32,14.72 L60.32,24.48 L61.84,24.48 Z M73.06,27 L73.06,12.2 L75.68,12.2 L75.68,27 L73.06,27 Z M89.92,27 L88.7,23.84 L82.32,23.84 L81.12,27 L78.28,27 L84.2,12.2 L86.86,12.2 L92.76,27 L89.92,27 Z M85.52,15.46 L83.26,21.34 L87.76,21.34 L85.52,15.46 Z M108.4,20.16 C108.4,23.96 106.16,27.26 101.72,27.26 C97.28,27.26 93.86,23.94 93.86,19.64 C93.86,15.4 97.18,11.94 101.58,11.94 C103.8,11.94 105.76,12.82 107.16,14.24 L105.58,16.04 C104.5,14.8 103,14.34 101.68,14.34 C98.64,14.34 96.46,16.78 96.46,19.64 C96.46,22.54 98.68,24.86 101.74,24.86 C103.9,24.86 105.56,23.7 105.8,20.98 L101.14,20.98 L101.14,18.46 L108.4,18.46 L108.4,20.16 Z M122.96,27 L114.82,15.74 L114.82,27 L112.2,27 L112.2,12.2 L115.5,12.2 L123.12,22.72 L123.12,12.2 L125.72,12.2 L125.72,27 L122.96,27 Z M144.38,19.6 C144.38,23.88 140.96,27.26 136.66,27.26 C132.4,27.26 128.92,23.94 128.92,19.62 C128.92,15.4 132.24,11.94 136.64,11.94 C140.98,11.94 144.38,15.32 144.38,19.6 Z M136.66,24.86 C139.5,24.86 141.76,22.52 141.76,19.62 C141.76,16.72 139.52,14.34 136.64,14.34 C133.74,14.34 131.52,16.78 131.52,19.64 C131.52,22.54 133.82,24.86 136.66,24.86 Z M147.82,22.94 C148.64,23.88 149.62,24.86 151.26,24.86 C152.94,24.86 153.6,23.82 153.6,22.9 C153.6,20 146.92,21.06 146.92,16.2 C146.92,13.52 148.94,11.94 151.7,11.94 C153.02,11.94 154.26,12.3 155.68,13.34 L154.32,15.38 C153.48,14.64 152.5,14.34 151.58,14.34 C150.28,14.34 149.52,14.94 149.52,15.94 C149.52,18.92 156.22,17.56 156.22,22.78 C156.22,25.42 154.52,27.26 151.24,27.26 C149.5,27.26 147.72,26.74 146.18,24.64 L147.82,22.94 Z M159.52,27 L159.52,12.2 L168.9,12.2 L168.9,14.72 L162.14,14.72 L162.14,18.02 L167.46,18.02 L167.46,20.54 L162.14,20.54 L162.14,24.48 L168.9,24.48 L168.9,27 L159.52,27 Z" id="DIAGNOSE" fill="#1C2E35"></path>
        
        <path d="M57,42.36 L57,32 L59.87,32 C62.068,32 63.3,32.98 63.3,34.716 C63.3,35.892 62.726,36.564 61.816,36.9 C63.104,37.208 63.706,38.23 63.706,39.462 C63.706,41.492 62.054,42.36 59.982,42.36 L57,42.36 Z M60.066,36.27 C61.004,36.27 61.872,35.962 61.872,34.828 C61.872,33.82 61.172,33.344 59.926,33.344 L58.428,33.344 L58.428,36.27 L60.066,36.27 Z M59.94,41.016 C61.27,41.016 62.278,40.582 62.278,39.336 C62.278,38.16 61.396,37.614 59.912,37.614 L58.428,37.614 L58.428,41.016 L59.94,41.016 Z M67.386,42.36 L67.386,32 L73.434,32 L73.434,33.358 L68.814,33.358 L68.814,36.284 L72.65,36.284 L72.65,37.628 L68.814,37.628 L68.814,41.016 L73.434,41.016 L73.434,42.36 L67.386,42.36 Z M83.204,42.36 L80.572,37.852 L78.794,37.852 L78.794,42.36 L77.366,42.36 L77.366,32 L81.174,32 C83.218,32 84.604,32.868 84.604,34.926 C84.604,36.578 83.722,37.53 82.14,37.768 L84.842,42.36 L83.204,42.36 Z M81.16,36.494 C82.336,36.494 83.176,36.172 83.176,34.94 C83.176,33.834 82.49,33.358 81.16,33.358 L78.794,33.358 L78.794,36.494 L81.16,36.494 Z M88.382,42.36 L88.382,32 L89.81,32 L89.81,41.016 L94.682,41.016 L94.682,42.36 L88.382,42.36 Z M98.194,42.36 L98.194,32 L99.622,32 L99.622,42.36 L98.194,42.36 Z M111.688,42.36 L105.43,33.876 L105.43,42.36 L104.002,42.36 L104.002,32 L105.85,32 L111.744,39.966 L111.744,32 L113.172,32 L113.172,42.36 L111.688,42.36 Z" id="BERLIN" fill="#1C2E35"></path>
        
    </g>
</svg>