<?xml version="1.0" encoding="utf-8"?>
<!-- Generator: Adobe Illustrator 21.1.0, SVG Export Plug-In . SVG Version: 6.00 Build 0)  -->
<svg version="1.1" id="Layer_1" xmlns="http://www.w3.org/2000/svg" xmlns:xlink="http://www.w3.org/1999/xlink" x="0px" y="0px"
	 viewBox="0 0 121 48" style="enable-background:new 0 0 121 48;" xml:space="preserve">
<style type="text/css">
	.st0{fill:#1C2E35;}
</style>
<g>
	<path id="Diagnose" class="st0" d="M17.9,25V7.2h5c1.9,0,3.5,0.4,5,1.1s2.6,1.7,3.4,3.1s1.2,2.9,1.2,4.8s-0.4,3.4-1.2,4.8
		s-1.9,2.4-3.4,3.1S24.8,25,23,25H17.9z M21.1,22h1.8c0.9,0,1.8-0.1,2.5-0.3s1.4-0.5,2-1s1.1-1.1,1.4-1.8s0.5-1.7,0.5-2.7
		s-0.2-1.9-0.5-2.7S28,12,27.4,11.6s-1.3-0.8-2-1s-1.6-0.3-2.5-0.3h-1.8V22z M35.2,11.2c-0.4-0.4-0.5-0.8-0.5-1.3s0.2-1,0.5-1.3
		S36,8,36.5,8c0.5,0,1,0.2,1.3,0.5s0.5,0.8,0.5,1.3s-0.2,1-0.5,1.3s-0.8,0.5-1.3,0.5C36,11.7,35.6,11.5,35.2,11.2z M35.1,25V13.6h3
		V25H35.1z M40.7,19.3c0-1.7,0.6-3.1,1.8-4.2s2.6-1.7,4.3-1.7c1.2,0,2.3,0.4,3.2,1.1v-0.8h3V25h-3v-0.7C49,25,48,25.3,46.7,25.3
		c-1.1,0-2.1-0.3-3-0.8s-1.7-1.3-2.2-2.2S40.7,20.4,40.7,19.3z M43.6,19.3c0,0.9,0.3,1.6,0.9,2.2s1.4,0.9,2.2,0.9
		c0.9,0,1.6-0.3,2.2-0.9s0.9-1.4,0.9-2.2c0-0.8-0.3-1.6-0.9-2.2s-1.4-0.9-2.2-0.9c-0.9,0-1.6,0.3-2.2,0.9S43.6,18.5,43.6,19.3z
		 M55.5,19.3c0-1.7,0.6-3.1,1.8-4.2s2.6-1.7,4.3-1.7c1.2,0,2.3,0.4,3.2,1.1v-0.8h3v10.6c0,0.8-0.1,1.6-0.2,2.3s-0.3,1.3-0.6,1.7
		s-0.5,0.9-0.9,1.2s-0.7,0.6-1.1,0.8s-0.7,0.4-1.2,0.5S62.9,31,62.6,31s-0.7,0.1-1,0.1c-1.1,0-2.1-0.3-3-0.8s-1.6-1.2-2.2-2l2.7-1.2
		c0.3,0.4,0.7,0.6,1.1,0.8s0.9,0.3,1.3,0.3c1,0,1.7-0.3,2.3-0.8s0.9-1.4,0.9-2.7v-0.5c-0.9,0.7-1.9,1.1-3.2,1.1
		c-1.1,0-2.1-0.3-3-0.8s-1.7-1.3-2.2-2.2S55.5,20.4,55.5,19.3z M58.4,19.3c0,0.9,0.3,1.6,0.9,2.2s1.4,0.9,2.2,0.9
		c0.9,0,1.6-0.3,2.2-0.9s0.9-1.4,0.9-2.2c0-0.8-0.3-1.6-0.9-2.2s-1.4-0.9-2.2-0.9c-0.9,0-1.6,0.3-2.2,0.9S58.4,18.5,58.4,19.3z
		 M71.2,25V13.6h3v0.8c0.3-0.2,0.5-0.4,0.7-0.5s0.5-0.2,0.9-0.4s0.9-0.2,1.3-0.2c0.6,0,1.2,0.1,1.8,0.3s1,0.5,1.5,0.9s0.8,0.9,1,1.6
		c0.2,0.7,0.4,1.4,0.4,2.3V25h-3v-6.1c0-1.8-0.8-2.7-2.4-2.7c-1.6,0-2.3,0.9-2.3,2.6V25H71.2z M84.2,19.3c0-1.7,0.6-3.1,1.8-4.2
		s2.6-1.7,4.3-1.7c1.1,0,2.1,0.3,3.1,0.8s1.7,1.2,2.2,2.2c0.5,0.9,0.8,1.9,0.8,3c0,1.1-0.3,2.1-0.8,3s-1.3,1.6-2.2,2.2
		s-2,0.8-3.1,0.8c-1.1,0-2.1-0.3-3-0.8s-1.7-1.3-2.2-2.2S84.2,20.4,84.2,19.3z M87.1,19.3c0,0.9,0.3,1.6,0.9,2.2s1.4,0.9,2.2,0.9
		c0.9,0,1.6-0.3,2.2-0.9s0.9-1.4,0.9-2.2c0-0.8-0.3-1.6-0.9-2.2s-1.4-0.9-2.2-0.9c-0.9,0-1.6,0.3-2.2,0.9S87.1,18.5,87.1,19.3z
		 M97.8,23.7l1.6-2.2c0.5,0.4,1,0.7,1.6,0.9s1.1,0.3,1.6,0.3c0.5,0,0.8-0.1,1.1-0.2s0.3-0.4,0.3-0.6c0-0.2-0.1-0.4-0.3-0.6
		s-0.5-0.3-0.8-0.4s-0.7-0.2-1.1-0.3s-0.8-0.2-1.2-0.4s-0.8-0.4-1.1-0.6s-0.6-0.6-0.8-1s-0.3-0.9-0.3-1.5c0-1.1,0.4-1.9,1.1-2.6
		s1.7-1,2.9-1c0.7,0,1.4,0.1,2.1,0.3s1.4,0.6,2,1.1l-1.6,2.1c-0.8-0.6-1.7-0.9-2.6-0.9c-0.4,0-0.7,0.1-0.9,0.2s-0.3,0.3-0.3,0.5
		c0,0.2,0.1,0.4,0.3,0.6s0.5,0.3,0.8,0.4s0.7,0.2,1.1,0.4s0.8,0.3,1.2,0.5s0.8,0.4,1.1,0.6s0.6,0.6,0.8,1s0.3,0.9,0.3,1.5
		c0,1.1-0.4,2-1.1,2.6s-1.8,1-3.2,1c-1,0-1.8-0.1-2.5-0.4S98.5,24.2,97.8,23.7z M108.6,19.4c0-0.8,0.1-1.6,0.4-2.3s0.7-1.4,1.2-1.9
		s1.1-1,1.9-1.3s1.6-0.5,2.4-0.5c1.1,0,2.1,0.3,3,0.8s1.6,1.3,2.1,2.2c0.5,0.9,0.7,1.9,0.7,3c0,0.3,0,0.6-0.1,0.9h-8.7
		c0.2,0.7,0.5,1.3,1.1,1.7s1.3,0.6,2.1,0.6c0.5,0,1.1-0.1,1.6-0.3s0.9-0.5,1.2-0.9l2,1.6c-0.5,0.7-1.2,1.3-2.1,1.7s-1.8,0.6-2.7,0.6
		c-1.1,0-2.2-0.3-3.1-0.8s-1.7-1.2-2.2-2.1S108.6,20.5,108.6,19.4z M111.6,18.1h5.7c-0.1-0.6-0.4-1.1-0.9-1.5s-1.2-0.6-1.9-0.6
		c-0.7,0-1.3,0.2-1.8,0.6S111.8,17.5,111.6,18.1z"/>
	<path id="BERLIN" class="st0" d="M17.4,44V32.2h3.3c1.3,0,2.2,0.3,2.9,0.8s1,1.3,1,2.3c0,1.2-0.6,2.1-1.7,2.5
		c0.7,0.2,1.2,0.5,1.6,1S25,40,25,40.7c0,0.5-0.1,0.9-0.2,1.2s-0.3,0.7-0.6,0.9s-0.6,0.5-0.9,0.6s-0.7,0.3-1.2,0.4S21.2,44,20.8,44
		H17.4z M19,42.5h1.7c0.8,0,1.5-0.2,2-0.5s0.7-0.8,0.7-1.5c0-0.7-0.2-1.1-0.7-1.5s-1.1-0.5-2-0.5H19V42.5z M19,37h1.9
		c1.4,0,2.1-0.5,2.1-1.6c0-0.6-0.2-1-0.6-1.3s-0.9-0.4-1.7-0.4H19V37z M28.9,44V32.2h6.9v1.6h-5.3v3.3H35v1.5h-4.4v3.9h5.3V44H28.9z
		 M40.1,44V32.2h4.4c1.2,0,2.2,0.3,2.9,0.8s1,1.4,1,2.5c0,0.9-0.2,1.7-0.7,2.2s-1.2,0.9-2.1,1l3.1,5.2h-1.9l-3-5.1h-2V44H40.1z
		 M41.7,37.3h2.7c0.4,0,0.7,0,0.9-0.1s0.5-0.1,0.7-0.3s0.4-0.3,0.5-0.5s0.2-0.5,0.2-0.9c0-0.6-0.2-1.1-0.6-1.4s-1-0.4-1.7-0.4h-2.7
		V37.3z M52.4,44V32.2H54v10.3h5.6V44H52.4z M63.3,44V32.2h1.6V44H63.3z M69.6,44V32.2h2.1l6.7,9.1v-9.1h1.6V44h-1.7l-7.1-9.7V44
		H69.6z"/>
</g>
</svg>
