<svg xmlns="http://www.w3.org/2000/svg" xmlns:xlink="http://www.w3.org/1999/xlink" viewBox="0 0 24 24" style="enable-background:new 0 0 24 24;" xml:space="preserve">
	<path fill="#fff" d="M18.2,12c0-3.4-2.8-6.2-6.2-6.2S5.8,8.6,5.8,12s2.8,6.2,6.2,6.2S18.2,15.4,18.2,12z M16,12c0,2.2-1.8,4-4,4 s-4-1.8-4-4s1.8-4,4-4S16,9.8,16,12z"/>
	<path fill="#fff" d="M24,12c0-3.3,0-3.7-0.1-4.9c-0.2-4.4-2.6-6.8-7-7C15.7,0,15.3,0,12,0S8.3,0,7.1,0.1c-4.4,0.2-6.8,2.6-7,7
	C0,8.3,0,8.7,0,12s0,3.7,0.1,4.9c0.2,4.4,2.6,6.8,7,7C8.3,24,8.7,24,12,24s3.7,0,4.9-0.1c4.4-0.2,6.8-2.6,7-7C24,15.7,24,15.3,24,12z M21.8,7.2c0.1,1.3,0.1,1.6,0.1,4.8s0,3.6-0.1,4.8c-0.1,3.2-1.7,4.8-4.9,4.9c-1.3,0.1-1.6,0.1-4.9,0.1c-3.2,0-3.6,0-4.8-0.1c-3.3-0.1-4.8-1.7-4.9-4.9c-0.1-1.3-0.1-1.6-0.1-4.9s0-3.6,0.1-4.8C2.4,3.9,4,2.3,7.2,2.2c1.2,0,1.6,0,4.8,0s3.6,0,4.8,0.1C20.1,2.4,21.6,3.9,21.8,7.2z"/>
	<circle fill="#fff" cx="18.4" cy="5.6" r="1.4"/>
</svg>
