<?xml version="1.0" encoding="utf-8"?>
<!-- Generator: Adobe Illustrator 22.1.0, SVG Export Plug-In . SVG Version: 6.00 Build 0)  -->
<svg version="1.1" id="Layer_1" xmlns="http://www.w3.org/2000/svg" xmlns:xlink="http://www.w3.org/1999/xlink" x="0px" y="0px"
	 viewBox="0 0 512 512" style="enable-background:new 0 0 512 512;" xml:space="preserve">
<style type="text/css">
	.st0{fill:#FFFFFF;}
</style>
<path class="st0" d="M0,0h512v512H0V0z M247.9,340.2h56.2l15.4-60.8h37.1c49.8,0,85.8-13.5,96.3-54.7S434.2,170,384.4,170H291
	L247.9,340.2L247.9,340.2z M328,246.4l11-43.4h28.9c22,0.7,29.2,9.2,26,21.7s-14.6,21-37,21.7H328z M145.4,203l-34.8,137.2h56.2
	L201.6,203H262l8.4-33H210h-56.3H88.4l-8.3,33H145.4z"/>
</svg>
