<?xml version="1.0" encoding="UTF-8"?>
<svg width="164px" height="164px" viewBox="0 0 164 164" version="1.1" xmlns="http://www.w3.org/2000/svg" xmlns:xlink="http://www.w3.org/1999/xlink">
    <!-- Generator: Sketch 52.3 (67297) - http://www.bohemiancoding.com/sketch -->
    <title>usp-3-improve</title>
    <desc>Created with Sketch.</desc>
    <defs>
        <circle id="path-1" cx="50" cy="50" r="50"></circle>
        <filter x="-53.5%" y="-45.5%" width="207.0%" height="207.0%" filterUnits="objectBoundingBox" id="filter-2">
            <feOffset dx="0" dy="8" in="SourceAlpha" result="shadowOffsetOuter1"></feOffset>
            <feGaussianBlur stdDeviation="16.5" in="shadowOffsetOuter1" result="shadowBlurOuter1"></feGaussianBlur>
            <feColorMatrix values="0 0 0 0 0.0588235294   0 0 0 0 0.298039216   0 0 0 0 0.392156863  0 0 0 0.15 0" type="matrix" in="shadowBlurOuter1"></feColorMatrix>
        </filter>
    </defs>
    <g id="Visual-Design" stroke="none" stroke-width="1" fill="none" fill-rule="evenodd">
        <g id="04-How-We-Work-(Desktop)" transform="translate(-806.000000, -526.000000)">
            <g id="Group-2-Copy" transform="translate(0.000000, 550.000000)">
                <g id="usp-3-improve" transform="translate(838.000000, 0.000000)">
                    <g id="Oval-Copy-12" fill-rule="nonzero">
                        <use fill="black" fill-opacity="1" filter="url(#filter-2)" xlink:href="#path-1"></use>
                        <use fill="#FFFFFF" xlink:href="#path-1"></use>
                    </g>
                    <g id="noun_Award_986938" transform="translate(27.000000, 25.000000)" stroke="#F88379" stroke-width="2">
                        <g id="Group">
                            <rect id="Rectangle" x="0" y="38.0000038" width="15" height="8"></rect>
                            <rect id="Rectangle" x="15" y="27.0000038" width="16" height="19"></rect>
                            <rect id="Rectangle" x="31" y="33.0000038" width="15" height="13"></rect>
                            <path d="M18.0000591,-4.3e-06 L18.0000591,9.9999957 C18.0000591,12.7614093 20.2385845,14.9999967 23.0000591,14.9999967 C25.7614116,14.9999967 28.0000591,12.7614093 28.0000591,9.9999957 L28.0000591,-4.3e-06 L18.0000591,-4.3e-06 Z" id="Path"></path>
                            <path d="M28.0000591,2.0000043 L32,2.0000043 C32,2.0000043 32,10.344666 28.0000591,9.9999952" id="Path"></path>
                            <path d="M17.9999714,2.0000043 L14.0000286,2.0000043 C14.0000286,2.0000043 14.0000286,10.344666 17.9999714,9.9999952" id="Path"></path>
                            <path d="M23.0000591,14.9999962 L23.0000591,23.0000038" id="Path"></path>
                            <path d="M17.9999714,23.0000038 L28.0000591,23.0000038" id="Path"></path>
                        </g>
                    </g>
                </g>
            </g>
        </g>
    </g>
</svg>