<?xml version="1.0" encoding="UTF-8"?>
<svg width="164px" height="164px" viewBox="0 0 164 164" version="1.1" xmlns="http://www.w3.org/2000/svg" xmlns:xlink="http://www.w3.org/1999/xlink">
    <!-- Generator: Sketch 52.3 (67297) - http://www.bohemiancoding.com/sketch -->
    <title>usp-2-understand</title>
    <desc>Created with Sketch.</desc>
    <defs>
        <circle id="path-1" cx="50" cy="50" r="50"></circle>
        <filter x="-53.5%" y="-45.5%" width="207.0%" height="207.0%" filterUnits="objectBoundingBox" id="filter-2">
            <feOffset dx="0" dy="8" in="SourceAlpha" result="shadowOffsetOuter1"></feOffset>
            <feGaussianBlur stdDeviation="16.5" in="shadowOffsetOuter1" result="shadowBlurOuter1"></feGaussianBlur>
            <feColorMatrix values="0 0 0 0 0.0588235294   0 0 0 0 0.298039216   0 0 0 0 0.392156863  0 0 0 0.15 0" type="matrix" in="shadowBlurOuter1"></feColorMatrix>
        </filter>
    </defs>
    <g id="Visual-Design" stroke="none" stroke-width="1" fill="none" fill-rule="evenodd">
        <g id="04-How-We-Work-(Desktop)" transform="translate(-427.000000, -580.000000)" fill-rule="nonzero">
            <g id="Group-2-Copy" transform="translate(0.000000, 550.000000)">
                <g id="usp-2-understand" transform="translate(459.000000, 54.000000)">
                    <g id="Oval-Copy-11">
                        <use fill="black" fill-opacity="1" filter="url(#filter-2)" xlink:href="#path-1"></use>
                        <use fill="#FFFFFF" xlink:href="#path-1"></use>
                    </g>
                    <path d="M50.5003235,33.3840989 C42.8434798,33.3840989 36.6139639,39.916883 36.6139639,47.9466962 C36.6139639,49.0612301 36.7381919,50.1841635 36.9989412,51.338756 L37.3638609,52.6613363 L37.365802,52.6600441 C37.3742133,52.6929955 37.3839186,52.725947 37.3929769,52.7556679 C37.5819069,53.3197189 37.8064232,53.8792473 38.0361155,54.3593045 C38.6307276,55.7988301 39.5113229,57.8482803 40.3388624,59.4551475 C40.9069467,60.560636 41.3585671,62.342598 41.6109052,64.4715194 C41.7008411,65.2345713 41.7318981,65.7566255 41.7338392,65.8076679 L41.757779,66.310985 C41.79013,66.9461078 42.3155109,67.4455482 42.9521793,67.4455482 L58.0445856,67.4455482 C58.6819011,67.4455482 59.2072819,66.9454617 59.24028,66.3096928 L59.2661608,65.8063757 C59.2913946,65.3857603 59.5437327,61.6234814 60.6624316,59.4577319 C61.4886771,57.8489264 62.3692724,55.7962457 62.9373566,54.4155158 C63.1935768,53.8766629 63.4206811,53.3171345 63.5837304,52.8157558 C63.6050821,52.7653595 63.6238457,52.7130248 63.6374331,52.659398 L63.6374331,52.6606902 L64.0159402,51.2812525 C64.2637492,50.1789946 64.3873302,49.0592918 64.3873302,47.9460501 C64.3879772,39.9175291 58.1597553,33.3840989 50.5003235,33.3840989 Z M61.6976648,50.7055715 L61.3476266,51.9732327 C61.3424504,51.9822782 61.3405094,51.9926159 61.3379213,51.9997231 C61.1813423,52.4726732 60.9924122,52.9398082 60.7517205,53.4502325 C60.174578,54.8458228 59.3224516,56.8313085 58.5356744,58.3632273 C57.4357391,60.4915025 57.0475266,63.6199508 56.9220046,65.0575381 L44.0760543,65.0575381 C44.0553497,64.8197709 44.0255867,64.5270846 43.9867655,64.1930474 C43.784895,62.4886181 43.3585083,60.0947931 42.4656197,58.3632273 C41.6762543,56.8313085 40.824128,54.847115 40.2236927,53.3940212 C40.0218222,52.9721136 39.8445386,52.5340533 39.6646668,52.0184602 L39.3165696,50.7617828 C39.1088759,49.8339737 39.0034116,48.8880736 39.0034116,47.9479884 C39.0034116,41.2342944 44.15952,35.7734012 50.4983824,35.7734012 C56.8372449,35.7734012 61.9959414,41.2342944 61.9959414,47.9479884 C61.9965884,48.8841969 61.8911241,49.8326815 61.6976648,50.7055715 Z M57.0475266,70.322661 L43.9537674,70.322661 C43.2938062,70.322661 42.7580731,69.788977 42.7580731,69.128656 C42.7580731,68.468335 43.2938062,67.9346509 43.9537674,67.9346509 L57.0475266,67.9346509 C57.7081348,67.9346509 58.243868,68.468335 58.243868,69.128656 C58.243868,69.788977 57.7068408,70.322661 57.0475266,70.322661 Z M57.0475266,73.1616536 L43.9537674,73.1616536 C43.2938062,73.1616536 42.7580731,72.6279695 42.7580731,71.9676485 C42.7580731,71.3066814 43.2938062,70.7729974 43.9537674,70.7729974 L57.0475266,70.7729974 C57.7081348,70.7729974 58.243868,71.3060353 58.243868,71.9676485 C58.243868,72.6279695 57.7068408,73.1616536 57.0475266,73.1616536 Z M56.1041703,76 L44.8958297,76 C44.2358685,76 43.7001353,75.4663159 43.7001353,74.8059949 C43.7001353,74.1450279 44.2365155,73.6113438 44.8958297,73.6113438 L56.1041703,73.6113438 C56.7647785,73.6113438 57.3005117,74.1443818 57.3005117,74.8059949 C57.3005117,75.4663159 56.7654256,76 56.1041703,76 Z M45.2620434,56.4798265 C44.8673607,56.4798265 44.4804423,56.2840562 44.252691,55.9274053 C38.1486971,46.376011 44.1355803,40.7251624 45.3979178,39.6900996 C45.9077701,39.2707764 46.6621963,39.3450786 47.0808188,39.8548568 C47.4994412,40.3646349 47.4263279,41.116703 46.9158285,41.534734 C45.9271808,42.34689 41.2498677,46.7908114 46.2681607,54.6429453 C46.6233751,55.1998892 46.4609729,55.9370969 45.903888,56.2931017 C45.7046056,56.4190925 45.4826775,56.4798265 45.2620434,56.4798265 Z M76.8043056,48.9869279 L69.9646491,48.9869279 C69.3040409,48.9869279 68.7683077,48.4519516 68.7683077,47.7929228 C68.7683077,47.133248 69.3033939,46.5989178 69.9646491,46.5989178 L76.8043056,46.5989178 C77.4649138,46.5989178 78,47.133248 78,47.7929228 C78,48.4519516 77.4655608,48.9869279 76.8043056,48.9869279 Z M31.0359979,48.9869279 L24.1956944,48.9869279 C23.5357332,48.9869279 23,48.4519516 23,47.7929228 C23,47.133248 23.5357332,46.5989178 24.1956944,46.5989178 L31.0359979,46.5989178 C31.6959591,46.5989178 32.2316923,47.133248 32.2316923,47.7929228 C32.2316923,48.4519516 31.6959591,48.9869279 31.0359979,48.9869279 Z M50.4990295,29.2180033 C49.8390683,29.2180033 49.3033351,28.6836731 49.3033351,28.0239982 L49.3033351,21.1940051 C49.3033351,20.5343302 49.8390683,20 50.4990295,20 C51.1596377,20 51.6947238,20.5349763 51.6947238,21.1940051 L51.6947238,28.0239982 C51.6947238,28.6836731 51.1602847,29.2180033 50.4990295,29.2180033 Z M64.3808599,35.772109 C64.0748191,35.772109 63.7687783,35.6551637 63.5352038,35.4219192 C63.0680548,34.9547841 63.0680548,34.2007776 63.5352038,33.7336425 L68.371684,28.9039955 C68.838833,28.4368604 69.5958473,28.4368604 70.0623493,28.9039955 C70.5294983,29.3704845 70.5294983,30.125137 70.0623493,30.591626 L65.2258691,35.4219192 C64.9922946,35.6564559 64.6869008,35.772109 64.3808599,35.772109 Z M36.6197871,35.5375723 C36.3137463,35.5375723 36.0077054,35.4212731 35.7741309,35.1873825 L30.9376507,30.3577354 C30.4698547,29.8906003 30.4698547,29.1359478 30.9376507,28.6694588 C31.4054467,28.2029698 32.16052,28.2023237 32.628316,28.6694588 L37.4647962,33.4991058 C37.9325922,33.9662409 37.9325922,34.7202474 37.4647962,35.1873825 C37.2305747,35.4212731 36.9245339,35.5375723 36.6197871,35.5375723 Z M31.7820128,68.5503905 C31.475325,68.5503905 31.1692842,68.4340914 30.9363567,68.2008469 C30.4685607,67.7343579 30.4685607,66.9784131 30.9363567,66.5125702 L35.7728369,61.6829232 C36.2406329,61.2164342 36.9957061,61.2164342 37.4635021,61.6829232 C37.9306511,62.1494122 37.9306511,62.9047108 37.4635021,63.3711998 L32.6270219,68.2008469 C32.3940945,68.4340914 32.0880536,68.5503905 31.7820128,68.5503905 Z M69.2173402,68.7849273 C68.9112993,68.7849273 68.6059055,68.6666897 68.371684,68.4347375 L63.5352038,63.6037982 C63.0680548,63.1373092 63.0680548,62.3820105 63.5352038,61.9155216 C64.0023528,61.4490326 64.756779,61.4490326 65.2258691,61.9155216 L70.0623493,66.7464608 C70.5294983,67.2148881 70.5294983,67.9676024 70.0623493,68.4347375 C69.8287748,68.6666897 69.522734,68.7849273 69.2173402,68.7849273 Z" id="Shape" fill="#F88379"></path>
                </g>
            </g>
        </g>
    </g>
</svg>